<svg xmlns="http://www.w3.org/2000/svg" width="60" height="59.999" viewBox="0 0 60 59.999">
  <path id="Exclusion_3" data-name="Exclusion 3" d="M-2201-781a29.814,29.814,0,0,1-11.678-2.358,29.9,29.9,0,0,1-9.536-6.429,29.9,29.9,0,0,1-6.429-9.536A29.815,29.815,0,0,1-2231-811a29.816,29.816,0,0,1,2.357-11.677,29.9,29.9,0,0,1,6.429-9.536,29.9,29.9,0,0,1,9.536-6.429A29.816,29.816,0,0,1-2201-841a29.814,29.814,0,0,1,11.677,2.357,29.9,29.9,0,0,1,9.536,6.429,29.9,29.9,0,0,1,6.429,9.536A29.816,29.816,0,0,1-2171-811a29.815,29.815,0,0,1-2.357,11.677,29.9,29.9,0,0,1-6.429,9.536,29.9,29.9,0,0,1-9.536,6.429A29.813,29.813,0,0,1-2201-781Zm-8.047-20.839h16.093v1.256a1.23,1.23,0,0,0,1.229,1.229h2.873a1.231,1.231,0,0,0,1.229-1.229v-3.065a5.45,5.45,0,0,0,1.749-4.046,5.525,5.525,0,0,0-1.389-3.729h.984a.818.818,0,0,0,.8-.653l.463-2.235a.826.826,0,0,0-.168-.681.819.819,0,0,0-.635-.3h-3.115c-.954-2.518-1.932-4.12-2.908-4.763-1.849-1.216-5.272-1.943-9.158-1.943s-7.309.726-9.158,1.943c-.968.637-1.946,2.24-2.909,4.763h-3.115a.814.814,0,0,0-.635.3.811.811,0,0,0-.167.683l.462,2.235a.821.821,0,0,0,.8.653h.922a5.552,5.552,0,0,0-1.328,3.616,5.416,5.416,0,0,0,1.712,4.067l.015.012.021.016v3.127a1.231,1.231,0,0,0,1.229,1.229h2.872a1.231,1.231,0,0,0,1.229-1.229v-1.255Zm17.144-3.241a2.42,2.42,0,0,1-2.418-2.417,2.42,2.42,0,0,1,2.418-2.417,2.42,2.42,0,0,1,2.417,2.417A2.42,2.42,0,0,1-2191.9-805.08Zm-18.163,0a2.421,2.421,0,0,1-2.418-2.417,2.421,2.421,0,0,1,2.418-2.417,2.42,2.42,0,0,1,2.417,2.417A2.42,2.42,0,0,1-2210.065-805.08Zm18.984-8.93h-19.837c.788-2.176,1.557-3.632,2.111-4,1.453-.955,4.444-1.549,7.807-1.549s6.355.594,7.807,1.549c.56.367,1.31,1.786,2.112,3.995Z" transform="translate(2231 841)" fill="#fff"/>
</svg>
