<svg xmlns="http://www.w3.org/2000/svg" xmlns:xlink="http://www.w3.org/1999/xlink" width="18" height="96.712" viewBox="0 0 18 96.712">
  <defs>
    <clipPath id="clip-path">
      <rect width="3" height="64" fill="none"/>
    </clipPath>
  </defs>
  <g id="Group_1008" data-name="Group 1008" transform="translate(-34 -192)">
    <g id="Path_1147" data-name="Path 1147" transform="translate(34 192)" fill="#fff" opacity="0.53">
      <path d="M 9 17.5 C 4.313079833984375 17.5 0.5 13.68692016601562 0.5 9 C 0.5 4.313079833984375 4.313079833984375 0.5 9 0.5 C 13.68692016601562 0.5 17.5 4.313079833984375 17.5 9 C 17.5 13.68692016601562 13.68692016601562 17.5 9 17.5 Z" stroke="none"/>
      <path d="M 9 1 C 4.588789939880371 1 1 4.588789939880371 1 9 C 1 13.41121006011963 4.588789939880371 17 9 17 C 13.41121006011963 17 17 13.41121006011963 17 9 C 17 4.588789939880371 13.41121006011963 1 9 1 M 9 0 C 13.97056007385254 0 18 4.029439926147461 18 9 C 18 13.97056007385254 13.97056007385254 18 9 18 C 4.029439926147461 18 0 13.97056007385254 0 9 C 0 4.029439926147461 4.029439926147461 0 9 0 Z" stroke="none" fill="#acb5c2"/>
    </g>
    <g id="Ellipse_4" data-name="Ellipse 4" transform="translate(36 194)" fill="#fff" stroke="#acb5c2" stroke-width="1" opacity="0.66">
      <circle cx="7" cy="7" r="7" stroke="none"/>
      <circle cx="7" cy="7" r="6.5" fill="none"/>
    </g>
    <circle id="Ellipse_5" data-name="Ellipse 5" cx="3" cy="3" r="3" transform="translate(40 198)" fill="#acb5c2"/>
    <g id="Component_9_1" data-name="Component 9 – 1" transform="translate(42 210)">
      <g id="Repeat_Grid_4" data-name="Repeat Grid 4" clip-path="url(#clip-path)">
        <g transform="translate(-358 -188)">
          <g id="Rectangle_232" data-name="Rectangle 232" transform="translate(358 188)" fill="#fff" stroke="#8b99a8" stroke-width="1">
            <rect width="2" height="3" stroke="none"/>
            <rect x="0.5" y="0.5" width="1" height="2" fill="none"/>
          </g>
        </g>
        <g transform="translate(-358 -182)">
          <g id="Rectangle_232-2" data-name="Rectangle 232" transform="translate(358 188)" fill="#fff" stroke="#8b99a8" stroke-width="1">
            <rect width="2" height="3" stroke="none"/>
            <rect x="0.5" y="0.5" width="1" height="2" fill="none"/>
          </g>
        </g>
        <g transform="translate(-358 -176)">
          <g id="Rectangle_232-3" data-name="Rectangle 232" transform="translate(358 188)" fill="#fff" stroke="#8b99a8" stroke-width="1">
            <rect width="2" height="3" stroke="none"/>
            <rect x="0.5" y="0.5" width="1" height="2" fill="none"/>
          </g>
        </g>
        <g transform="translate(-358 -170)">
          <g id="Rectangle_232-4" data-name="Rectangle 232" transform="translate(358 188)" fill="#fff" stroke="#8b99a8" stroke-width="1">
            <rect width="2" height="3" stroke="none"/>
            <rect x="0.5" y="0.5" width="1" height="2" fill="none"/>
          </g>
        </g>
        <g transform="translate(-358 -164)">
          <g id="Rectangle_232-5" data-name="Rectangle 232" transform="translate(358 188)" fill="#fff" stroke="#8b99a8" stroke-width="1">
            <rect width="2" height="3" stroke="none"/>
            <rect x="0.5" y="0.5" width="1" height="2" fill="none"/>
          </g>
        </g>
        <g transform="translate(-358 -158)">
          <g id="Rectangle_232-6" data-name="Rectangle 232" transform="translate(358 188)" fill="#fff" stroke="#8b99a8" stroke-width="1">
            <rect width="2" height="3" stroke="none"/>
            <rect x="0.5" y="0.5" width="1" height="2" fill="none"/>
          </g>
        </g>
        <g transform="translate(-358 -152)">
          <g id="Rectangle_232-7" data-name="Rectangle 232" transform="translate(358 188)" fill="#fff" stroke="#8b99a8" stroke-width="1">
            <rect width="2" height="3" stroke="none"/>
            <rect x="0.5" y="0.5" width="1" height="2" fill="none"/>
          </g>
        </g>
        <g transform="translate(-358 -146)">
          <g id="Rectangle_232-8" data-name="Rectangle 232" transform="translate(358 188)" fill="#fff" stroke="#8b99a8" stroke-width="1">
            <rect width="2" height="3" stroke="none"/>
            <rect x="0.5" y="0.5" width="1" height="2" fill="none"/>
          </g>
        </g>
        <g transform="translate(-358 -140)">
          <g id="Rectangle_232-9" data-name="Rectangle 232" transform="translate(358 188)" fill="#fff" stroke="#8b99a8" stroke-width="1">
            <rect width="2" height="3" stroke="none"/>
            <rect x="0.5" y="0.5" width="1" height="2" fill="none"/>
          </g>
        </g>
        <g transform="translate(-358 -134)">
          <g id="Rectangle_232-10" data-name="Rectangle 232" transform="translate(358 188)" fill="#fff" stroke="#8b99a8" stroke-width="1">
            <rect width="2" height="3" stroke="none"/>
            <rect x="0.5" y="0.5" width="1" height="2" fill="none"/>
          </g>
        </g>
        <g transform="translate(-358 -128)">
          <g id="Rectangle_232-11" data-name="Rectangle 232" transform="translate(358 188)" fill="#fff" stroke="#8b99a8" stroke-width="1">
            <rect width="2" height="3" stroke="none"/>
            <rect x="0.5" y="0.5" width="1" height="2" fill="none"/>
          </g>
        </g>
      </g>
    </g>
    <g id="placeholder-filled-point" transform="translate(25.117 271.773)">
      <path id="Path_1135" data-name="Path 1135" d="M18.383,0a5.506,5.506,0,0,0-5.5,5.5,5.365,5.365,0,0,0,.481,2.245,34.678,34.678,0,0,0,4.787,7.088.306.306,0,0,0,.464,0A34.7,34.7,0,0,0,23.4,7.745,5.363,5.363,0,0,0,23.883,5.5,5.507,5.507,0,0,0,18.383,0Zm0,8.357A2.857,2.857,0,1,1,21.24,5.5,2.86,2.86,0,0,1,18.383,8.357Z" transform="translate(0 2)" fill="#acb5c2"/>
    </g>
  </g>
</svg>
