<svg xmlns="http://www.w3.org/2000/svg" width="60" height="59.999" viewBox="0 0 60 59.999">
  <path id="Exclusion_2" data-name="Exclusion 2" d="M-2201-781a29.814,29.814,0,0,1-11.678-2.358,29.9,29.9,0,0,1-9.536-6.429,29.9,29.9,0,0,1-6.429-9.536A29.815,29.815,0,0,1-2231-811a29.816,29.816,0,0,1,2.357-11.677,29.9,29.9,0,0,1,6.429-9.536,29.9,29.9,0,0,1,9.536-6.429A29.816,29.816,0,0,1-2201-841a29.814,29.814,0,0,1,11.677,2.357,29.9,29.9,0,0,1,9.536,6.429,29.9,29.9,0,0,1,6.429,9.536A29.816,29.816,0,0,1-2171-811a29.815,29.815,0,0,1-2.357,11.677,29.9,29.9,0,0,1-6.429,9.536,29.9,29.9,0,0,1-9.536,6.429A29.813,29.813,0,0,1-2201-781Zm-7.376-18.412h17.028v1.881a.767.767,0,0,0,.766.766h3.265a.767.767,0,0,0,.766-.766v-1.881h1.786a.766.766,0,0,0,.765-.765v-5.863a.044.044,0,0,0,0-.013.925.925,0,0,0-.013-.136l0-.008,0-.008a.711.711,0,0,0-.034-.112l-.005-.012-.01-.024,0-.011,0-.013-2.236-4.562a1.857,1.857,0,0,0,1.174-1.731v-8.846a1.954,1.954,0,0,0-1.951-1.951,1.963,1.963,0,0,0-.355.032,1.945,1.945,0,0,0-1.065.581c-1.894-2.174-7.205-3.146-11.63-3.146-4.28,0-9.495.928-11.5,3a1.931,1.931,0,0,0-.913-.437,2.063,2.063,0,0,0-.356-.031,1.953,1.953,0,0,0-1.951,1.951v8.845a1.858,1.858,0,0,0,1.174,1.732l-2.236,4.562,0,.012,0,.011c-.005.012-.01.023-.014.035a.766.766,0,0,0-.035.112.064.064,0,0,1,0,.007l0,.01a.722.722,0,0,0-.013.13.055.055,0,0,1,0,.009s0,.007,0,.009v5.863a.766.766,0,0,0,.765.765h2.063v1.881a.767.767,0,0,0,.766.766h3.265a.766.766,0,0,0,.765-.766v-1.88Zm22.384-7.393h-28.015l3.439-7.017a2.329,2.329,0,0,0,1.9.986h5.99a2.334,2.334,0,0,0,2.015-1.17h1.332a2.331,2.331,0,0,0,2.014,1.17h5.99a2.33,2.33,0,0,0,1.9-.986l3.439,7.016Zm-5.337-7.563h-5.99a.8.8,0,0,1-.794-.794v-3.483a.8.8,0,0,1,.794-.794h5.99a.8.8,0,0,1,.795.794v3.483A.8.8,0,0,1-2191.329-814.368Zm-11.352,0h-5.99a.8.8,0,0,1-.794-.794v-3.483a.8.8,0,0,1,.794-.794h5.99a.8.8,0,0,1,.794.794v3.483A.8.8,0,0,1-2202.681-814.368Z" transform="translate(2231 841)" fill="#fff"/>
</svg>
