<svg xmlns="http://www.w3.org/2000/svg" xmlns:xlink="http://www.w3.org/1999/xlink" width="298.703" height="161.718" viewBox="0 0 298.703 161.718">
  <defs>
    <linearGradient id="linear-gradient" x1="0.5" x2="0.5" y2="1" gradientUnits="objectBoundingBox">
      <stop offset="0" stop-color="#00c9ff"/>
      <stop offset="1" stop-color="#fff"/>
    </linearGradient>
    <linearGradient id="linear-gradient-4" x1="-0.02" y1="0.344" x2="0.984" y2="0.344" gradientUnits="objectBoundingBox">
      <stop offset="0" stop-color="#9cdbfe" stop-opacity="0"/>
      <stop offset="1" stop-color="#eff8fe"/>
    </linearGradient>
    <linearGradient id="linear-gradient-5" x1="0.116" y1="0.072" x2="0.5" y2="1" gradientUnits="objectBoundingBox">
      <stop offset="0" stop-color="#67dfff"/>
      <stop offset="1" stop-color="#009bed"/>
    </linearGradient>
    <linearGradient id="linear-gradient-6" x1="-0.022" y1="0.445" x2="0.981" y2="0.445" gradientUnits="objectBoundingBox">
      <stop offset="0" stop-color="#9cdbfe" stop-opacity="0"/>
      <stop offset="1" stop-color="#00d0df"/>
    </linearGradient>
    <linearGradient id="linear-gradient-7" x1="-0.029" y1="0.522" x2="0.974" y2="0.522" xlink:href="#linear-gradient-6"/>
    <linearGradient id="linear-gradient-8" x1="-0.031" y1="0.671" x2="0.973" y2="0.671" gradientUnits="objectBoundingBox">
      <stop offset="0" stop-color="#9cdbfe" stop-opacity="0"/>
      <stop offset="1" stop-color="#36abf9"/>
    </linearGradient>
    <linearGradient id="linear-gradient-9" x1="-0.068" y1="0.438" x2="0.935" y2="0.438" xlink:href="#linear-gradient-6"/>
    <linearGradient id="linear-gradient-10" x1="-0.031" y1="0.35" x2="0.973" y2="0.35" gradientUnits="objectBoundingBox">
      <stop offset="0" stop-color="#9cdbfe" stop-opacity="0"/>
      <stop offset="1" stop-color="#4db8ff"/>
    </linearGradient>
    <linearGradient id="linear-gradient-11" x1="-0.01" y1="0.553" x2="0.982" y2="0.553" gradientUnits="objectBoundingBox">
      <stop offset="0" stop-color="#9cdbfe" stop-opacity="0"/>
      <stop offset="0.447" stop-color="#00a4ff" stop-opacity="0"/>
      <stop offset="1" stop-color="#eff8fe"/>
    </linearGradient>
    <linearGradient id="linear-gradient-12" x1="0.5" y1="1" x2="0.5" gradientUnits="objectBoundingBox">
      <stop offset="0" stop-color="#adb7c7"/>
      <stop offset="1" stop-color="#fff"/>
    </linearGradient>
    <linearGradient id="linear-gradient-13" x1="0.5" y1="0" x2="0.5" y2="1" xlink:href="#linear-gradient-12"/>
    <linearGradient id="linear-gradient-14" x1="0.5" y1="0" x2="0.5" y2="1" xlink:href="#linear-gradient-12"/>
    <linearGradient id="linear-gradient-15" x1="0" y1="0.5" x2="1" y2="0.5" xlink:href="#linear-gradient-12"/>
    <linearGradient id="linear-gradient-16" x1="1" y1="0.5" x2="0" y2="0.5" xlink:href="#linear-gradient-12"/>
  </defs>
  <g id="Group_1006" data-name="Group 1006" transform="translate(-36 -214)">
    <g id="Group_968" data-name="Group 968">
      <g id="Group_791" data-name="Group 791" transform="translate(-84.297 88.892)">
        <path id="Path_1636" data-name="Path 1636" d="M233.13,57.076A14.933,14.933,0,0,0,212.643,43.2,16.78,16.78,0,0,0,180.5,38.882,16.777,16.777,0,1,0,168.885,70.23a14.934,14.934,0,0,0,25.122,6.9,14.934,14.934,0,0,0,24.562-5.123A14.94,14.94,0,0,0,233.13,57.076Z" transform="translate(-6.983 176.559)" opacity="0.47" fill="url(#linear-gradient)"/>
        <path id="Path_1635" data-name="Path 1635" d="M191.1,71.234a37.274,37.274,0,0,0-51.136-34.643,41.884,41.884,0,0,0-80.23-10.769,41.875,41.875,0,1,0-28.988,78.245,37.272,37.272,0,0,0,62.706,17.219A37.273,37.273,0,0,0,154.76,108.5,37.294,37.294,0,0,0,191.1,71.234Z" transform="translate(227.901 141.822)" opacity="0.47" fill="url(#linear-gradient)"/>
        <path id="Path_1637" data-name="Path 1637" d="M191.1,71.234a37.274,37.274,0,0,0-51.136-34.643,41.884,41.884,0,0,0-80.23-10.769,41.875,41.875,0,1,0-28.988,78.245,37.272,37.272,0,0,0,62.706,17.219A37.273,37.273,0,0,0,154.76,108.5,37.294,37.294,0,0,0,191.1,71.234Z" transform="translate(131.797 125.108)" opacity="0.47" fill="url(#linear-gradient)"/>
      </g>
    </g>
    <g id="Group_759" data-name="Group 759" transform="translate(36 317.131)">
      <path id="Path_1549" data-name="Path 1549" d="M.573,69.166a.564.564,0,0,1-.144-1.112L44.223,57.236a.564.564,0,0,1,.272,1.1L.7,69.15A.512.512,0,0,1,.573,69.166Z" transform="translate(0 -57.219)" fill="url(#linear-gradient-4)"/>
    </g>
    <path id="Path_1550" data-name="Path 1550" d="M16.381,46.289l8.114-1.468a1.9,1.9,0,0,1,1.527.384c4.385,3.5,28.841,22.883,33.572,24.059l154.849-28c3.676-1.281,7.425-2.385,11.192-3.365a86.346,86.346,0,0,1,9.273-1.957c8.776-1.276,18.195,1.456,25.965,5.443a56.819,56.819,0,0,1,6.034,3.591c.251.171.5.342.747.517a2.416,2.416,0,0,1,.257,3.756c-2.972,2.724-9.59,7.342-21.773,9.376L90.719,88.964s-47.079,3.3-71.377-1.991c0,0-4.337-1.327-.717-3.967,0,0,8.843-2.593,12.383-2.24A208.922,208.922,0,0,0,15.939,47.237.641.641,0,0,1,16.381,46.289Z" transform="translate(39.063 255.74)" fill="#fff" stroke="#7ce6ee" stroke-width="1"/>
    <path id="Path_1551" data-name="Path 1551" d="M59.6,67.782C54.852,66.6,30.251,47.092,25.983,43.688a1.779,1.779,0,0,0-1.428-.36L16.33,44.816a.6.6,0,0,0-.415.891,208.854,208.854,0,0,1,15.1,33.577c-3.54-.353-12.383,2.24-12.383,2.24-3.62,2.642.717,3.967.717,3.967a142.457,142.457,0,0,0,21.568,2.551C46.4,81.65,56.347,73.706,74.27,65.129Z" transform="translate(39.059 257.223)" fill="url(#linear-gradient-5)"/>
    <g id="Group_760" data-name="Group 760" transform="translate(272.95 293.287)">
      <path id="Path_1552" data-name="Path 1552" d="M205.263,38.868l-.563,4.219,8.457-1.528-2.417-3.68Z" transform="translate(-197.406 -37.111)" fill="#00d0df"/>
      <path id="Path_1553" data-name="Path 1553" d="M212.535,41.606l8.686-1.57a55.954,55.954,0,0,0-7.282-2.8l-3.822.691Z" transform="translate(-196.359 -37.235)" fill="#00d0df"/>
      <path id="Path_1554" data-name="Path 1554" d="M201.591,39.574l-3,4.661,6.882-1.244.563-4.219Z" transform="translate(-198.587 -36.938)" fill="#00d0df"/>
    </g>
    <path id="Path_1555" data-name="Path 1555" d="M29.069,95.088" transform="translate(41.615 267.228)" fill="#5c7ee5"/>
    <path id="Path_1556" data-name="Path 1556" d="M70.208,62.266C52.287,70.842,42.343,78.786,36.852,85.178c8.383.459,17.135.519,24.925.406A148.789,148.789,0,0,1,93.116,58.123Z" transform="translate(43.119 260.087)" fill="#87e6ff"/>
    <path id="Path_1557" data-name="Path 1557" d="M240.846,56.229c10.575-1.765,16.956-5.478,20.4-8.208L43.251,87.441c21.184.6,42.175-.872,42.175-.872Z" transform="translate(44.355 258.135)" fill="#07daea" opacity="0.88"/>
    <g id="Group_762" data-name="Group 762" transform="translate(246.348 301.699)">
      <rect id="Rectangle_441" data-name="Rectangle 441" width="0.995" height="1.4" transform="translate(5.762 5.137) rotate(169.746)" fill="#5c7ee5"/>
      <g id="Group_761" data-name="Group 761" transform="translate(0)">
        <path id="Path_1558" data-name="Path 1558" d="M182.519,53.231l-3.657.661a1.163,1.163,0,0,1-1.349-.935l-1.2-6.642a1.163,1.163,0,0,1,.937-1.349L180.9,44.3a1.164,1.164,0,0,1,1.349.935l1.2,6.642A1.164,1.164,0,0,1,182.519,53.231Zm-5.2-7.875a.765.765,0,0,0-.616.887l1.2,6.642a.763.763,0,0,0,.887.614l3.657-.661a.765.765,0,0,0,.616-.887l-1.2-6.642a.763.763,0,0,0-.887-.614Z" transform="translate(-176.292 -44.286)" fill="#254860"/>
      </g>
    </g>
    <g id="Group_764" data-name="Group 764" transform="translate(142.118 320.546)">
      <rect id="Rectangle_442" data-name="Rectangle 442" width="0.995" height="1.4" transform="translate(5.749 5.133) rotate(169.753)" fill="#5c7ee5"/>
      <g id="Group_763" data-name="Group 763" transform="translate(0)">
        <path id="Path_1559" data-name="Path 1559" d="M95.164,69.027l-3.657.661a1.163,1.163,0,0,1-1.349-.935l-1.2-6.642a1.163,1.163,0,0,1,.937-1.349L93.55,60.1a1.163,1.163,0,0,1,1.349.935l1.2,6.642A1.163,1.163,0,0,1,95.164,69.027Zm-5.2-7.874a.765.765,0,0,0-.616.887l1.2,6.642a.763.763,0,0,0,.887.614l3.657-.661a.765.765,0,0,0,.616-.887l-1.2-6.642a.763.763,0,0,0-.887-.614Z" transform="translate(-88.937 -60.081)" fill="#254860"/>
      </g>
    </g>
    <g id="Group_765" data-name="Group 765" transform="translate(115.698 302.032)">
      <path id="Path_1560" data-name="Path 1560" d="M190.368,47.262l.192-.035a1.129,1.129,0,0,0,.91-1.312l-.076-.421a1.129,1.129,0,0,0-1.312-.91l-.192.035a1.129,1.129,0,0,0-.91,1.312l.076.421A1.129,1.129,0,0,0,190.368,47.262Z" transform="translate(-43.195 -44.565)" fill="#455fac"/>
      <path id="Path_1561" data-name="Path 1561" d="M187.084,47.856l.192-.035a1.129,1.129,0,0,0,.91-1.312l-.076-.421a1.129,1.129,0,0,0-1.312-.91l-.192.035a1.129,1.129,0,0,0-.91,1.312l.076.421A1.129,1.129,0,0,0,187.084,47.856Z" transform="translate(-43.829 -44.45)" fill="#455fac"/>
      <path id="Path_1562" data-name="Path 1562" d="M183.8,48.45l.193-.035a1.129,1.129,0,0,0,.91-1.312l-.076-.421a1.129,1.129,0,0,0-1.312-.91l-.192.035a1.129,1.129,0,0,0-.91,1.312l.076.421A1.127,1.127,0,0,0,183.8,48.45Z" transform="translate(-44.464 -44.335)" fill="#455fac"/>
      <path id="Path_1563" data-name="Path 1563" d="M175.261,49.994l.192-.035a1.129,1.129,0,0,0,.91-1.312l-.076-.421a1.129,1.129,0,0,0-1.313-.91l-.193.035a1.129,1.129,0,0,0-.91,1.312l.076.421A1.131,1.131,0,0,0,175.261,49.994Z" transform="translate(-46.113 -44.037)" fill="#455fac"/>
      <path id="Path_1564" data-name="Path 1564" d="M171.977,50.588l.192-.035a1.129,1.129,0,0,0,.91-1.312L173,48.819a1.129,1.129,0,0,0-1.312-.91l-.192.035a1.129,1.129,0,0,0-.91,1.312l.076.421A1.13,1.13,0,0,0,171.977,50.588Z" transform="translate(-46.748 -43.922)" fill="#455fac"/>
      <path id="Path_1565" data-name="Path 1565" d="M168.693,51.182l.192-.035a1.129,1.129,0,0,0,.91-1.312l-.076-.421a1.129,1.129,0,0,0-1.312-.91l-.192.035a1.129,1.129,0,0,0-.91,1.313l.076.421A1.13,1.13,0,0,0,168.693,51.182Z" transform="translate(-47.382 -43.807)" fill="#455fac"/>
      <path id="Path_1566" data-name="Path 1566" d="M165.409,51.776l.192-.035a1.129,1.129,0,0,0,.91-1.312l-.076-.421a1.129,1.129,0,0,0-1.312-.91l-.192.035a1.129,1.129,0,0,0-.91,1.312l.076.421A1.13,1.13,0,0,0,165.409,51.776Z" transform="translate(-48.016 -43.693)" fill="#455fac"/>
      <path id="Path_1567" data-name="Path 1567" d="M162.125,52.369l.192-.035a1.129,1.129,0,0,0,.91-1.312l-.076-.421a1.129,1.129,0,0,0-1.312-.91l-.192.035a1.129,1.129,0,0,0-.91,1.312l.076.421A1.128,1.128,0,0,0,162.125,52.369Z" transform="translate(-48.651 -43.578)" fill="#455fac"/>
      <path id="Path_1568" data-name="Path 1568" d="M158.841,52.963l.192-.035a1.129,1.129,0,0,0,.91-1.312l-.076-.421a1.129,1.129,0,0,0-1.312-.91l-.192.035a1.129,1.129,0,0,0-.91,1.312l.076.421A1.129,1.129,0,0,0,158.841,52.963Z" transform="translate(-49.285 -43.463)" fill="#455fac"/>
      <path id="Path_1569" data-name="Path 1569" d="M155.557,53.557l.192-.035a1.129,1.129,0,0,0,.91-1.312l-.076-.421a1.129,1.129,0,0,0-1.312-.91l-.192.035a1.129,1.129,0,0,0-.91,1.312l.076.421A1.13,1.13,0,0,0,155.557,53.557Z" transform="translate(-49.92 -43.349)" fill="#455fac"/>
      <path id="Path_1570" data-name="Path 1570" d="M152.273,54.151l.192-.035a1.129,1.129,0,0,0,.91-1.312l-.076-.421a1.129,1.129,0,0,0-1.312-.91l-.192.035a1.129,1.129,0,0,0-.91,1.312l.076.421A1.13,1.13,0,0,0,152.273,54.151Z" transform="translate(-50.554 -43.234)" fill="#455fac"/>
      <path id="Path_1571" data-name="Path 1571" d="M148.989,54.745l.192-.035a1.129,1.129,0,0,0,.91-1.312l-.076-.421a1.129,1.129,0,0,0-1.312-.91l-.192.035a1.129,1.129,0,0,0-.91,1.312l.076.421A1.13,1.13,0,0,0,148.989,54.745Z" transform="translate(-51.188 -43.119)" fill="#455fac"/>
      <path id="Path_1572" data-name="Path 1572" d="M145.7,55.339l.192-.035a1.129,1.129,0,0,0,.91-1.312l-.076-.421a1.129,1.129,0,0,0-1.312-.91l-.192.035a1.129,1.129,0,0,0-.91,1.312l.076.421A1.13,1.13,0,0,0,145.7,55.339Z" transform="translate(-51.823 -43.004)" fill="#455fac"/>
      <path id="Path_1573" data-name="Path 1573" d="M142.421,55.933l.192-.035a1.129,1.129,0,0,0,.91-1.312l-.076-.421a1.129,1.129,0,0,0-1.313-.91l-.192.035a1.129,1.129,0,0,0-.91,1.312l.076.421A1.13,1.13,0,0,0,142.421,55.933Z" transform="translate(-52.457 -42.89)" fill="#455fac"/>
      <path id="Path_1574" data-name="Path 1574" d="M139.137,56.527l.192-.035a1.129,1.129,0,0,0,.91-1.312l-.076-.421a1.129,1.129,0,0,0-1.312-.91l-.192.035a1.129,1.129,0,0,0-.91,1.313l.076.421A1.13,1.13,0,0,0,139.137,56.527Z" transform="translate(-53.092 -42.775)" fill="#455fac"/>
      <path id="Path_1575" data-name="Path 1575" d="M135.853,57.12l.192-.035a1.129,1.129,0,0,0,.91-1.312l-.076-.421a1.129,1.129,0,0,0-1.312-.91l-.192.035a1.129,1.129,0,0,0-.91,1.312l.076.421A1.129,1.129,0,0,0,135.853,57.12Z" transform="translate(-53.726 -42.66)" fill="#455fac"/>
      <path id="Path_1576" data-name="Path 1576" d="M132.569,57.714l.192-.035a1.129,1.129,0,0,0,.91-1.312l-.076-.421a1.129,1.129,0,0,0-1.312-.91l-.192.035a1.129,1.129,0,0,0-.91,1.312l.076.421A1.13,1.13,0,0,0,132.569,57.714Z" transform="translate(-54.36 -42.546)" fill="#455fac"/>
      <path id="Path_1577" data-name="Path 1577" d="M129.285,58.308l.192-.035a1.129,1.129,0,0,0,.91-1.312l-.076-.421a1.129,1.129,0,0,0-1.313-.91l-.192.035a1.129,1.129,0,0,0-.91,1.312l.076.421A1.13,1.13,0,0,0,129.285,58.308Z" transform="translate(-54.995 -42.431)" fill="#455fac"/>
      <path id="Path_1578" data-name="Path 1578" d="M126,58.9l.192-.035a1.129,1.129,0,0,0,.91-1.312l-.076-.421a1.129,1.129,0,0,0-1.312-.91l-.192.035a1.129,1.129,0,0,0-.91,1.312l.076.421A1.13,1.13,0,0,0,126,58.9Z" transform="translate(-55.629 -42.316)" fill="#455fac"/>
      <path id="Path_1579" data-name="Path 1579" d="M122.717,59.5l.193-.035a1.129,1.129,0,0,0,.91-1.312l-.076-.421a1.129,1.129,0,0,0-1.312-.91l-.192.035a1.129,1.129,0,0,0-.91,1.312l.076.421A1.128,1.128,0,0,0,122.717,59.5Z" transform="translate(-56.263 -42.201)" fill="#455fac"/>
      <path id="Path_1580" data-name="Path 1580" d="M119.433,60.09l.192-.035a1.129,1.129,0,0,0,.91-1.312l-.076-.421a1.129,1.129,0,0,0-1.312-.91l-.192.035a1.129,1.129,0,0,0-.91,1.313l.076.421A1.13,1.13,0,0,0,119.433,60.09Z" transform="translate(-56.898 -42.087)" fill="#455fac"/>
      <path id="Path_1581" data-name="Path 1581" d="M116.149,60.683l.193-.035a1.129,1.129,0,0,0,.91-1.312l-.076-.421a1.129,1.129,0,0,0-1.312-.91l-.192.035a1.129,1.129,0,0,0-.91,1.312l.076.421A1.126,1.126,0,0,0,116.149,60.683Z" transform="translate(-57.532 -41.972)" fill="#455fac"/>
      <path id="Path_1582" data-name="Path 1582" d="M112.865,61.277l.192-.035a1.129,1.129,0,0,0,.91-1.312l-.076-.421a1.129,1.129,0,0,0-1.312-.91l-.192.035a1.129,1.129,0,0,0-.91,1.312l.076.421A1.128,1.128,0,0,0,112.865,61.277Z" transform="translate(-58.167 -41.857)" fill="#455fac"/>
      <path id="Path_1583" data-name="Path 1583" d="M109.581,61.871l.192-.035a1.129,1.129,0,0,0,.91-1.312l-.076-.421a1.129,1.129,0,0,0-1.312-.91l-.192.035a1.129,1.129,0,0,0-.91,1.312l.076.421A1.128,1.128,0,0,0,109.581,61.871Z" transform="translate(-58.801 -41.743)" fill="#455fac"/>
      <path id="Path_1584" data-name="Path 1584" d="M106.3,62.465l.192-.035a1.129,1.129,0,0,0,.91-1.312l-.076-.421a1.129,1.129,0,0,0-1.312-.91l-.192.035a1.129,1.129,0,0,0-.91,1.312l.076.421A1.129,1.129,0,0,0,106.3,62.465Z" transform="translate(-59.436 -41.628)" fill="#455fac"/>
      <path id="Path_1585" data-name="Path 1585" d="M103.013,63.059l.192-.035a1.129,1.129,0,0,0,.91-1.312l-.076-.421a1.129,1.129,0,0,0-1.312-.91l-.192.035a1.129,1.129,0,0,0-.91,1.313l.076.421A1.129,1.129,0,0,0,103.013,63.059Z" transform="translate(-60.07 -41.513)" fill="#455fac"/>
      <path id="Path_1586" data-name="Path 1586" d="M99.729,63.653l.192-.035a1.129,1.129,0,0,0,.91-1.312l-.076-.421a1.129,1.129,0,0,0-1.312-.91l-.192.033a1.129,1.129,0,0,0-.91,1.312l.076.421A1.129,1.129,0,0,0,99.729,63.653Z" transform="translate(-60.704 -41.398)" fill="#455fac"/>
      <path id="Path_1587" data-name="Path 1587" d="M96.445,64.247l.192-.035a1.129,1.129,0,0,0,.91-1.312l-.076-.421a1.129,1.129,0,0,0-1.312-.91l-.192.035a1.129,1.129,0,0,0-.91,1.313l.076.421A1.129,1.129,0,0,0,96.445,64.247Z" transform="translate(-61.339 -41.284)" fill="#455fac"/>
      <path id="Path_1588" data-name="Path 1588" d="M87.906,65.791l.192-.035a1.129,1.129,0,0,0,.91-1.312l-.076-.421a1.129,1.129,0,0,0-1.312-.91l-.192.035a1.129,1.129,0,0,0-.91,1.313l.076.421A1.13,1.13,0,0,0,87.906,65.791Z" transform="translate(-62.988 -40.985)" fill="#455fac"/>
      <path id="Path_1589" data-name="Path 1589" d="M84.622,66.385l.192-.035a1.129,1.129,0,0,0,.91-1.312l-.076-.421a1.129,1.129,0,0,0-1.312-.91l-.192.035a1.129,1.129,0,0,0-.91,1.313l.076.421A1.13,1.13,0,0,0,84.622,66.385Z" transform="translate(-63.623 -40.871)" fill="#455fac"/>
      <path id="Path_1590" data-name="Path 1590" d="M81.338,66.978l.192-.035a1.129,1.129,0,0,0,.91-1.312l-.076-.421a1.129,1.129,0,0,0-1.312-.91l-.192.035a1.129,1.129,0,0,0-.91,1.313l.076.421A1.129,1.129,0,0,0,81.338,66.978Z" transform="translate(-64.257 -40.756)" fill="#455fac"/>
      <path id="Path_1591" data-name="Path 1591" d="M78.054,67.572l.192-.035a1.129,1.129,0,0,0,.91-1.312L79.08,65.8a1.129,1.129,0,0,0-1.312-.91l-.193.035a1.129,1.129,0,0,0-.91,1.312l.076.421A1.131,1.131,0,0,0,78.054,67.572Z" transform="translate(-64.892 -40.641)" fill="#455fac"/>
      <path id="Path_1592" data-name="Path 1592" d="M74.77,68.166l.192-.035a1.129,1.129,0,0,0,.91-1.312L75.8,66.4a1.129,1.129,0,0,0-1.312-.91l-.192.035a1.129,1.129,0,0,0-.91,1.312l.076.421A1.13,1.13,0,0,0,74.77,68.166Z" transform="translate(-65.526 -40.527)" fill="#455fac"/>
      <path id="Path_1593" data-name="Path 1593" d="M71.486,68.76l.192-.035a1.129,1.129,0,0,0,.91-1.312l-.076-.421a1.129,1.129,0,0,0-1.312-.91l-.193.035a1.129,1.129,0,0,0-.91,1.313l.076.421A1.131,1.131,0,0,0,71.486,68.76Z" transform="translate(-66.161 -40.412)" fill="#455fac"/>
      <path id="Path_1594" data-name="Path 1594" d="M68.2,69.354l.192-.035a1.129,1.129,0,0,0,.91-1.312l-.076-.421a1.129,1.129,0,0,0-1.312-.91l-.192.033a1.129,1.129,0,0,0-.91,1.312l.076.421A1.13,1.13,0,0,0,68.2,69.354Z" transform="translate(-66.795 -40.297)" fill="#455fac"/>
    </g>
    <g id="Group_766" data-name="Group 766" transform="translate(54.916 291.364)" opacity="0.3">
      <path id="Path_1597" data-name="Path 1597" d="M16.2,47.7a.636.636,0,0,1,.394-.241L24.708,46a1.9,1.9,0,0,1,1.527.384c4.385,3.5,28.841,22.883,33.572,24.059l154.849-28c3.676-1.281,7.425-2.385,11.192-3.365a86.288,86.288,0,0,1,9.273-1.957c8.776-1.276,18.195,1.456,25.965,5.443a56.937,56.937,0,0,1,6.034,3.591c.251.171.5.342.747.517a2.415,2.415,0,0,1,.813.981,2.42,2.42,0,0,0-1.025-2.156c-.248-.174-.5-.346-.747-.517a56.857,56.857,0,0,0-6.034-3.591c-7.77-3.989-17.189-6.72-25.965-5.443a86.223,86.223,0,0,0-9.273,1.957c-3.767.98-7.516,2.083-11.192,3.365l-154.851,28C54.864,68.087,30.406,48.7,26.021,45.205a1.9,1.9,0,0,0-1.527-.384L16.38,46.289a.642.642,0,0,0-.443.95Q16.07,47.471,16.2,47.7Z" transform="translate(-15.853 -35.623)" fill="#fff"/>
      <path id="Path_1598" data-name="Path 1598" d="M18.622,76.877S27.464,74.284,31,74.637c0,0-.137-.419-.407-1.19C26.942,73.2,18.408,75.7,18.408,75.7c-1.637,1.194-1.644,2.119-1.165,2.774A3.442,3.442,0,0,1,18.622,76.877Z" transform="translate(-15.638 -28.32)" fill="#fff"/>
    </g>
    <g id="Group_773" data-name="Group 773" transform="translate(136.2 315.801)">
      <g id="Group_769" data-name="Group 769" transform="translate(44.649 8.804)">
        <ellipse id="Ellipse_38" data-name="Ellipse 38" cx="0.773" cy="5.789" rx="0.773" ry="5.789" transform="translate(27.917 11.785) rotate(169.752)" fill="#1f2a4d"/>
        <path id="Path_1599" data-name="Path 1599" d="M125.932,67.455a2.132,2.132,0,0,0-1.718,2.477l.02.11-1.545.279a1.571,1.571,0,0,0-1.266,1.824l.558,3.09a1.571,1.571,0,0,0,1.824,1.266l1.545-.279.02.11a2.132,2.132,0,0,0,2.477,1.718l2.318-.419-.4-2.207-1.118-6.181-.4-2.207Z" transform="translate(-121.397 -62.796)" fill="#59befc"/>
        <g id="Group_768" data-name="Group 768" transform="translate(0 5.781)">
          <g id="Group_767" data-name="Group 767">
            <path id="Path_1600" data-name="Path 1600" d="M125.29,75.748l-.079.014c.03.03.066.054.1.082Z" transform="translate(-120.66 -66.895)" fill="#454546"/>
            <path id="Path_1601" data-name="Path 1601" d="M122.539,75.168l-.791-4.379a3.155,3.155,0,0,1-.048-.477,1.565,1.565,0,0,0-.278,1.2l.558,3.09a1.569,1.569,0,0,0,.681,1.029A3.308,3.308,0,0,1,122.539,75.168Z" transform="translate(-121.397 -67.945)" fill="#454546"/>
            <path id="Path_1602" data-name="Path 1602" d="M123.945,68.328c-.019.038-.044.072-.062.111l.079-.014Z" transform="translate(-120.917 -68.328)" fill="#454546"/>
          </g>
        </g>
        <path id="Path_1603" data-name="Path 1603" d="M146.268,69.774a28.465,28.465,0,0,1-.552-5.719,4.171,4.171,0,0,0-2.853-.5l-16.832,4.412,1.916,10.6L145.259,76.8a4.167,4.167,0,0,0,2.495-1.472A28.321,28.321,0,0,1,146.268,69.774Z" transform="translate(-120.502 -63.483)" fill="#87e6ff"/>
      </g>
      <g id="Group_772" data-name="Group 772" transform="translate(31.947 14.437)">
        <ellipse id="Ellipse_39" data-name="Ellipse 39" cx="0.773" cy="5.789" rx="0.773" ry="5.789" transform="translate(27.917 11.786) rotate(169.752)" fill="#1f2a4d"/>
        <path id="Path_1604" data-name="Path 1604" d="M115.286,72.177a2.132,2.132,0,0,0-1.718,2.477l.02.111-1.545.279a1.571,1.571,0,0,0-1.266,1.824l.558,3.09a1.571,1.571,0,0,0,1.824,1.266l1.545-.279.02.11a2.132,2.132,0,0,0,2.477,1.718l2.318-.419-.4-2.207L118,73.965l-.4-2.207Z" transform="translate(-110.752 -67.517)" fill="#59befc"/>
        <g id="Group_771" data-name="Group 771" transform="translate(0 5.783)">
          <g id="Group_770" data-name="Group 770">
            <path id="Path_1605" data-name="Path 1605" d="M114.644,80.47l-.079.014c.03.03.066.054.1.082Z" transform="translate(-110.016 -71.618)" fill="#454546"/>
            <path id="Path_1606" data-name="Path 1606" d="M111.894,79.89l-.791-4.379a3.155,3.155,0,0,1-.048-.477,1.565,1.565,0,0,0-.278,1.2l.558,3.09a1.569,1.569,0,0,0,.681,1.029A3.151,3.151,0,0,1,111.894,79.89Z" transform="translate(-110.752 -72.668)" fill="#454546"/>
            <path id="Path_1607" data-name="Path 1607" d="M113.3,73.051c-.019.037-.045.072-.062.111l.079-.014Z" transform="translate(-110.272 -73.051)" fill="#454546"/>
          </g>
        </g>
        <path id="Path_1608" data-name="Path 1608" d="M135.622,74.5a28.465,28.465,0,0,1-.552-5.719,4.171,4.171,0,0,0-2.853-.506l-16.832,4.412,1.916,10.6,17.312-1.762a4.167,4.167,0,0,0,2.495-1.472A28.452,28.452,0,0,1,135.622,74.5Z" transform="translate(-109.857 -68.204)" fill="#87e6ff"/>
      </g>
      <path id="Path_1609" data-name="Path 1609" d="M126.787,63,84.134,84.472,113.712,80.2l51.5-17.272s5.251-3.782-.29-6.826Z" transform="translate(-83.947 -56.104)" fill="#c3eaf2"/>
      <path id="Path_1610" data-name="Path 1610" d="M98.235,81.452l12.751-1.841,51.5-17.272a5.893,5.893,0,0,0,2.215-3.179Z" transform="translate(-81.223 -55.514)" fill="#c4c4c4"/>
      <path id="Path_1611" data-name="Path 1611" d="M113.522,75.815,84.574,79.661a.688.688,0,0,0-.591.771l.016.118a.686.686,0,0,0,.771.589l28.949-3.846a.686.686,0,0,0,.589-.771l-.016-.118A.685.685,0,0,0,113.522,75.815Z" transform="translate(-83.977 -52.297)" fill="#59befc"/>
    </g>
    <path id="Path_1612" data-name="Path 1612" d="M37.933,66.768a.607.607,0,0,0,.359-1.029l-5.492-5.6,1.5-7.7a.607.607,0,0,0-.866-.66l-7.021,3.494-6.857-3.8a.6.6,0,0,0-.385-.066q.779,1.532,1.507,3.028a.45.45,0,0,1,.521-.06l5.171,2.867,5.293-2.635a.458.458,0,0,1,.654.5l-1.129,5.8,4.142,4.22a.458.458,0,0,1-.271.776l-5.869.719L27.481,69.9c.231.588.451,1.15.656,1.681l2.013-3.86Z" transform="translate(39.703 258.789)" fill="#5c7ee5"/>
    <path id="Path_1613" data-name="Path 1613" d="M21.918,56.8a.326.326,0,0,1,.481-.333l3.686,2.044,3.773-1.878a.326.326,0,0,1,.465.354l-.8,4.137,2.952,3.008a.326.326,0,0,1-.193.552l-4.183.513-1.443,2.767q.306.759.586,1.466l1.706-3.271,5.869-.719a.458.458,0,0,0,.271-.776l-4.142-4.22,1.129-5.8a.458.458,0,0,0-.654-.5l-5.293,2.635-5.171-2.867a.45.45,0,0,0-.521.06q.807,1.656,1.55,3.249Z" transform="translate(39.947 259.262)" fill="#59befc"/>
    <path id="Path_1614" data-name="Path 1614" d="M32.037,64.265a.326.326,0,0,0,.193-.552L29.278,60.7l.8-4.137a.326.326,0,0,0-.465-.354l-3.773,1.878-3.686-2.044a.326.326,0,0,0-.481.333l.062.418c1.867,4,3.43,7.672,4.671,10.747l1.443-2.767Z" transform="translate(40.187 259.678)" fill="#fff"/>
    <g id="Group_775" data-name="Group 775" transform="translate(95.283 346.745)">
      <path id="Path_1615" data-name="Path 1615" d="M50.258,96.83a.564.564,0,0,1-.128-1.114l63.03-13.663a.564.564,0,0,1,.239,1.1L50.369,96.817A.587.587,0,0,1,50.258,96.83Z" transform="translate(-49.685 -82.038)" fill="url(#linear-gradient-6)"/>
    </g>
    <g id="Group_776" data-name="Group 776" transform="translate(175.743 343.689)">
      <path id="Path_1616" data-name="Path 1616" d="M117.691,91.424a.564.564,0,0,1-.144-1.111l43.794-10.82a.564.564,0,0,1,.272,1.1L117.818,91.408A.528.528,0,0,1,117.691,91.424Z" transform="translate(-117.118 -79.477)" fill="url(#linear-gradient-7)"/>
    </g>
    <g id="Group_777" data-name="Group 777" transform="translate(255.041 320.974)">
      <path id="Path_1617" data-name="Path 1617" d="M183.957,68.358a.374.374,0,0,1-.1-.736l29.029-7.171a.374.374,0,1,1,.18.725l-29.029,7.171A.351.351,0,0,1,183.957,68.358Z" transform="translate(-183.578 -60.44)" fill="url(#linear-gradient-8)"/>
    </g>
    <g id="Group_778" data-name="Group 778" transform="translate(146.793 355.822)">
      <path id="Path_1618" data-name="Path 1618" d="M93.428,95.542a.564.564,0,0,1-.143-1.111l19.306-4.769a.564.564,0,1,1,.27,1.1L93.554,95.526A.654.654,0,0,1,93.428,95.542Z" transform="translate(-92.855 -89.645)" fill="url(#linear-gradient-9)"/>
    </g>
    <g id="Group_779" data-name="Group 779" transform="translate(41.055 349.828)">
      <path id="Path_1619" data-name="Path 1619" d="M4.809,96.567a.564.564,0,0,1-.144-1.111L48.459,84.638a.564.564,0,0,1,.272,1.1L4.935,96.551A.51.51,0,0,1,4.809,96.567Z" transform="translate(-4.236 -84.622)" fill="url(#linear-gradient-10)"/>
    </g>
    <g id="Group_780" data-name="Group 780" transform="translate(282.23 287.76)">
      <path id="Path_1620" data-name="Path 1620" d="M218.813,63.578a.422.422,0,0,1-.125-.828c.166-.049,16.608-4.918,18.393-11.5.453-1.673-.081-3.286-1.637-4.931-8.829-9.341-28.531-12.837-28.728-12.872a.423.423,0,0,1,.143-.834c.2.035,20.179,3.581,29.2,13.125,1.75,1.852,2.368,3.781,1.839,5.734-1.909,7.041-18.276,11.891-18.972,12.094A.518.518,0,0,1,218.813,63.578Z" transform="translate(-206.365 -32.603)" fill="url(#linear-gradient-11)"/>
    </g>
    <g id="Group_785" data-name="Group 785" transform="translate(165.802 353.225)">
      <path id="Path_1623" data-name="Path 1623" d="M254.415,67.126a10.234,10.234,0,0,0-2.015-.268,3.387,3.387,0,0,0-2.735-.138s-.482-.237-.69-.061-.253.107-.253.107a1.478,1.478,0,0,0,.513.3h0a.55.55,0,0,0,.045.334,2.033,2.033,0,0,0-.953,1.873s-.2.816-.54.828c0,0,.092.23.574-.345,0,0-.149.366-.218.39A6.081,6.081,0,0,0,250.5,67.78c.116-.007.239-.021.367-.042.274.869.867,2.367,1.716,2.408,0,0,.218.3.357.333s.71-1.514-.6-3.272c.054-.03.105-.052.161-.084A7.62,7.62,0,0,1,254.415,67.126Z" transform="translate(-247.787 -66.469)" fill="url(#linear-gradient-12)"/>
      <path id="Path_1624" data-name="Path 1624" d="M248.878,66.674a4.1,4.1,0,0,0-.955.237c-.138.115,1.069.019,1.069.019S249.1,66.694,248.878,66.674Z" transform="translate(-247.763 -66.43)" fill="#fefe66"/>
      <ellipse id="Ellipse_41" data-name="Ellipse 41" cx="0.044" cy="0.044" rx="0.044" ry="0.044" transform="translate(1.34 0.149)"/>
    </g>
    <g id="Group_786" data-name="Group 786" transform="translate(89.316 273.916)">
      <path id="Path_1625" data-name="Path 1625" d="M187.549,1.155l.171.474L187.89.416l.19.606L188.345,0l.094.946L188.8,0l.094.814.341-.587s.777,4.873.119,6.615a2.038,2.038,0,0,0,1.1.643c.758.19.77.3.656.618s-.315.694-1,.278a7.918,7.918,0,0,0-1.326-.644s-.278.972-2.272,1.439c0,0-1.439.618-2.083.984l.152-.378-.568.378.29-.581-.48.163.43-.366h-.568L184.2,9.2s.758-1.2,1.262-1.426S186.3,7.5,186.6,7.1c0,0-.215-.4-.493-.48s-.146-.587.391-.436a1.1,1.1,0,0,0,.8,0s-.549-3.2.246-4.942" transform="translate(-183.684)" fill="url(#linear-gradient-13)"/>
      <path id="Path_1626" data-name="Path 1626" d="M185.9,5.184a1.131,1.131,0,0,0-.728.085,4.924,4.924,0,0,0,.568.319C185.921,5.657,185.9,5.184,185.9,5.184Z" transform="translate(-183.397 0.997)" fill="#fefe66"/>
      <ellipse id="Ellipse_42" data-name="Ellipse 42" cx="0.054" cy="0.054" rx="0.054" ry="0.054" transform="translate(2.502 6.509)"/>
      <ellipse id="Ellipse_43" data-name="Ellipse 43" cx="0.054" cy="0.054" rx="0.054" ry="0.054" transform="translate(2.593 6.242)"/>
    </g>
    <g id="Group_787" data-name="Group 787" transform="translate(72.81 365.558)">
      <path id="Path_1627" data-name="Path 1627" d="M173.715,77.96l.171.474.171-1.212.19.606.265-1.023.094.946.359-.946.094.814.341-.587s.777,4.873.119,6.614a2.044,2.044,0,0,0,1.1.644c.758.19.77.3.656.618s-.316.694-1,.278a7.918,7.918,0,0,0-1.326-.644s-.278.972-2.272,1.439c0,0-1.439.618-2.083.984l.152-.378-.568.378.29-.581-.48.165.43-.366h-.568l.518-.177s.758-1.2,1.262-1.426.833-.278,1.136-.669c0,0-.215-.4-.493-.48s-.146-.587.391-.436a1.1,1.1,0,0,0,.8,0s-.549-3.2.246-4.942" transform="translate(-169.85 -76.805)" fill="url(#linear-gradient-14)"/>
      <path id="Path_1628" data-name="Path 1628" d="M172.064,81.989a1.131,1.131,0,0,0-.728.085,4.924,4.924,0,0,0,.568.319C172.085,82.462,172.064,81.989,172.064,81.989Z" transform="translate(-169.563 -75.809)" fill="#fefe66"/>
      <ellipse id="Ellipse_44" data-name="Ellipse 44" cx="0.054" cy="0.054" rx="0.054" ry="0.054" transform="translate(2.501 6.508)"/>
      <ellipse id="Ellipse_45" data-name="Ellipse 45" cx="0.054" cy="0.054" rx="0.054" ry="0.054" transform="translate(2.592 6.242)"/>
    </g>
    <g id="Group_789" data-name="Group 789" transform="translate(232.01 349.838)">
      <path id="Path_1632" data-name="Path 1632" d="M305.286,71.577s.609-.125.647-.28c0,0,1.2.488,1.4.038s-.57-1.517-.57-1.517-1.5-.078-1.477,1.71" transform="translate(-302.888 -62.435)" fill="url(#linear-gradient-15)"/>
      <path id="Path_1633" data-name="Path 1633" d="M313.991,74.523c.889-.889,3.94,0,3.94,0-.463-.5-3.129-1-3.129-1-3.225-.174-3.631-.908-3.631-.908s-.069-.136-.191-.333l.066-.008c5.533-3.679,5.881-8.343,5.881-8.343a13.729,13.729,0,0,1-3.187,3.3c-1.425.98-3.424,2.689-4.279,3.432a1.517,1.517,0,0,0-.869-.186,19.249,19.249,0,0,0-1.767-2.965c-.135-.969-3.109-3.879-3.109-3.879s-.811.705-.231,3.312a8.184,8.184,0,0,0,3.013,4.208c-.135.072-.231.128-.231.128,2.935,3.418,4.442,2.626,4.442,2.626.193.212,5,4.094,5,4.094S313.1,75.41,313.991,74.523Z" transform="translate(-303.276 -63.63)" fill="url(#linear-gradient-16)"/>
      <ellipse id="Ellipse_47" data-name="Ellipse 47" cx="0.085" cy="0.085" rx="0.085" ry="0.085" transform="translate(2.674 8.093)"/>
      <path id="Path_1634" data-name="Path 1634" d="M305.388,70.627a2.288,2.288,0,0,0-.112.743v.05s.575-.121.657-.271A1.837,1.837,0,0,0,305.388,70.627Z" transform="translate(-302.89 -62.278)" fill="#fefe66"/>
    </g>
  </g>
</svg>
