<svg xmlns="http://www.w3.org/2000/svg" xmlns:xlink="http://www.w3.org/1999/xlink" width="287.305" height="274" viewBox="0 0 287.305 274">
  <defs>
    <linearGradient id="linear-gradient" x1="0.355" y1="0.907" x2="0.379" y2="0.047" gradientUnits="objectBoundingBox">
      <stop offset="0" stop-color="#5bc9ff"/>
      <stop offset="1" stop-color="#44e2ff"/>
    </linearGradient>
  </defs>
  <g id="Group_1010" data-name="Group 1010" transform="translate(-44 -93)">
    <g id="Group_1009" data-name="Group 1009">
      <g id="Group_959" data-name="Group 959" transform="translate(0 -115)">
        <g id="Group_958" data-name="Group 958">
          <g id="Group_887" data-name="Group 887" transform="translate(44 208)" opacity="0.9">
            <path id="Path_1715" data-name="Path 1715" d="M191.277,34.744c.874,1.483,8.5.7,6.685,3.575S194.425,47.368,200,49.285c1.125.386,1.208-.206,3.021-3.079s3.4-2.293,5.287-2.566,5-2.19,6.589-2.857,4.588-.309,6.344-4.259.368-3.746,1.614-3.746,5.013-1.283,5.268-2.028-6.938.074-8.789-.521c-1.116-.36-3.6-3.921-9.026-3.969-3.564-.031-6.458,2.21-13.141,5.794C191.7,34.986,189.691,32.053,191.277,34.744Z" transform="translate(-101.011 -23.374)" fill="#a7f8ff" opacity="0.8"/>
            <path id="Path_1716" data-name="Path 1716" d="M80.353,33.552a2.67,2.67,0,0,0,3-.513c1.529-1.335,3.28-2.955,6.571-2.84,7.651.266,9.972-.731,8.989-1.416s-10.65-.945-10.65-.945,2.788-1.96-1.737-2.4c-7.468-.718-7.468-.718-8.006-.41s-.51,2.6-1.133,2.6-.907,1.742-.227,3.1.7,1.49-.152,1.234-.9-.924-.734-1.8-.963-.821-1.361-.206-5.3-.379-4.475.768.529,2.037-.528,2.311-5.664,2.805-2.417,3.079,7.4-2.509,6.948.524-3.965,1.153-3.7-.251-1.888.41-3.323,1.163-4.8,1.745-4.228,0,.566-2.976,2.265-3.8,3.625-2.36,2.265-3.181S65,30.986,64.55,31.807s-2.492,0-2.492-.616-5.1.41-5.1,1.231-1.245.513-2.153.667-7.174,3.952-3.624,3.661,2.775.958,2.1,1.249-4.786.017-4.843-.8-1.784-.086-4.163.564-12.6-.7-14.766-1.642c-12.2-5.337-20.932-.09-19.8,2.99.451,1.224,2.874,8.3,1.673,9.635C9.56,50.767,3.3,49.724.856,50.589c-4.051,1.437,7.391.513,11.129-.615,2.262-.683,1.587,4,7.477.205,2.551-1.645,6.948-4.043,8.156-.719,3.059,8.416-2.946,11.5-4.078,13.958s-.378,4.243,1.209,6.98.755,3.352,1.132,5.269,2.568,5.268,3.551,5.406.074-1.436-.907-3.764-1.586-5.406-.6-4.859,1.283,2.258,3.1,5.816,2.38,2.19,2.492,4.96,5.287,4.619,7.25,4.619,1.927-1.026,2.776,0,1.7,2.053,2.946,2.053,2.492,1.026,3.4,3.181,3.284,3.132,4.587,2.771,5.552.48,2.984,3.9c0,0-5.74,5.131-3.172,9.238s6.76,9.546,9.139,11.291,3.172,5.745,2.87,13.273.755,9.1,1.132,9.717,1.7-.036,1.7.923-1.285.462-1.227,1.539,2.7,11.769,11.687,9.991c0,0,.151-.547-2-1.438s-2.832-2.634-1.774-3.008,1.473-2.773-.076-3.422.377-2.431.548-3.56-.907-1.026-.679-1.745,4.625-2.975,5.267-3.42-.642-1.711-1.133-2.8,0-.582,1.737.067,3.927-3.728,4.909-5.574-1.284-3.08.907-4.175,6.194-2.12,6.344-6.5.983-6.09,2.266-6.706,3.153-3.987,1.34-4.962a17.521,17.521,0,0,1-3.4-2.9c-.226-.076-4.531.232-4.843-.537s-.84-1.626-2.879-1.592-3.663-2.531-3.776-3.351a4.672,4.672,0,0,0-3.928-3.08c-2.567-.444-4.191-2.873-5.928-3.8s-6.967-1.01-7.307-1.728-3.185-1.189-5.948,1.642-1.755.821-2.152.564-1.115-.838-2.757.36S51.579,92,52.287,90.951s.934-4.028-1.558-3.618-2.574-.445-1.759-1.471,3.57-4.353,1.135-4.071-3.738,2.13-5.183,3.233-4.815-3.156-4.135-4.079,3.993-8.032,5.693-6.595,3.229.615,3.4,0,5.154-1.643,5.041.462,2.039,5.337,2.776,2.412-1.379-3.815.811-5.32,4.834-3.01,5.589-5.062,4.305-3.627,5.438-3.9,1.132-1.232,2.567-2.259.68.069,3.928.069,6.76-4.208,4.947-3.285-3.483.847-2.946-.1-.227-1.975-.934-1.718-2.992,1.428-2.445.5,2.586-1.813,5.277-1.583,3.456.1,4.163-.462.85-.076.425.41S81.2,56.388,82,56.9s1.133-.129,2.436.334.49.949,2.189.915,1.964-1.01,1.586-1.985-1.7-1.095-1.6-1.676.746-1,.831-2.028-.4-2.207-1.218-2.283-2.068-1.1-1.473-2.079-.065-3.874-1.236-2.609-3.493,1.634-3.352.659-1.821-3.84-5.107-2.267-2.757,2.959-2.681,3.182,1.076,1.292.169,1.78-4.078,1.078-4.22,2.181.949,1.784-.325,2.129-2.082-.077-1.487-1.078,1.487-1.514.992-1.9-2.786-.283-2.738-.667-2.9-.641-3.012-1.616-1.444-1.719,3.37-3.926,4.759-2,5.155-1.18,1.757.307,1.87-.205-.226.205.679.462,2.1-.564,1.586-1.283.34-1.778,1.4-2.053,2.114-2.976,3.473-2.412-.339,1.027-.623,1.9,1.342,1.3.812,1.539-4.23.89-3.021,1.506,1.963-.342,3.021.445,1.775,1.71,3.587,1.573,1.813-.513,2.871-1.642A4.8,4.8,0,0,1,88.72,41.01c.981-.239,1.095-2.172-.435-2.634s-3.767-3.747-5.352-3.747S79.221,34.322,80.353,33.552Z" transform="translate(0 -22.558)" fill="#a7f8ff" opacity="0.8"/>
            <path id="Path_1717" data-name="Path 1717" d="M395.91,37.591c-1.161-1.1-6.854-2.386-9.271-2.386s-6.231-1.848-7.7-1.95-1.038,2.155-1.586,2.1-1.561-.4-1.6-.809-5.268.483-6.172-1.056-6.383-.411-7.4-.48,2-6.364-1.775-5.987c-1.189.118,2.38,6.791-7.533,5.32-.43-.064.014.483-.78.573s-2.884-.231-2.884.35.322.513-.529.5a3.068,3.068,0,0,1-2.548-1.513c-.963-1.232-1.7-1.086-5.55-.847s-8.667-.736-9.177-2.121c-.252-.684,1.242-2.915.148-5.445-1.122-2.6-2.755-6.5-6.379-2.9-.524.52,4.076,1.905,3.341,4.105-.82,2.456-4.1,3.012-4.758,3.638-1.246,1.186-3.644.672-4.286.946s-2.946-.069-3.4,1.3-2.114.274-2.114.736-.087.051-1.135.564-3.285.411-4.021-.41a1.63,1.63,0,0,0-2.437,2.053c.907,2.207-1.557,2.091-3.02.958-5.3-4.105,5.242-8.309-.185-8.963-4.536-.548-2.912,9.622-3.649,9.314a5.045,5.045,0,0,0-4.513.711c-1.7,1.265-1.464-.274-1.435-.506s-2.38-.659-2.681.539-1.585,3.523-2.983,3.079-4.72-1.607-2.945-1.676,4.455,1.095,4.568-.753-3.606-2.062-5.5-2.062-2.379-1.334-2.747-1.565-.991.513-2.407.539-5.806-.231-6.882,1.976-1.7,3.8-3.173,3.8-5.947.1-4.36,4.567a2.13,2.13,0,0,0,2.87.342,1.685,1.685,0,0,1,2.709,1.557c-.142,1.052.143,1.052,1.105.975s3.248-1.882,3.928-2.874.527-1.368-.491-1.676-1.434-.924-.793-1.437,2.679-1.162,2.832-2.736,3.135-.992,2.87-.1-2.643,1.095-2.984,2.155a3.068,3.068,0,0,0,1.323,2.849c.424.025,4.267-1.823,4.192-.591s-.624,1.386-2.211,1.386a3.257,3.257,0,0,0-3.228,3.439c.227,2-1.756.41-2.011.1s-.453-.333-1.444.308-3.039,1.13-3.266-.41-.982-2.36-2.265-1.848-1.851.957-.869,1.882.2,1.428-.142,1.505-3.03-.787-3.03.513-1.7,1.129-1.624.376-1.169-.89-1.623-2.121-1.094-1.437-.679-2.635-1.1-2.669-1.284-1.608-.68-.376-1.623.479a3.06,3.06,0,0,0-1.152,3.019c.085,1.591-2.02-.5-2.587.231s-1.661,5.08.265,4.105,3.059-2.1,2.89-3.13,1.019-1.181.962,0-2.492,4.191-.3,5.833,2.909,3.968.529,4.071-5.476.753-5.476,1.915-.793,1.2-.793,1.2-1.585,2.6,0,3.147,3.776.754,2.643,1.985-3.241,2.172-3.348,4.687-2.43,2.309-4.355,3.951-2.945,3.4-2.039,6.21-.377,2.395-.982,3.969,4.985,10.538,8.308,10.606,4.682-.274,5.287,0,1.132-.41,3.624-1.164,2.738-.633,3.3.341,1.359,1.079,2.492,1.49,2.512,2.41,1.454,3.507,1.888,3.318,3.587,7.321-.491,6.569-1.247,7.664.657,3.01,1.878,5.131.848,4.448,1.07,5.68,2.263,2.155,2.717,5.234,3.285,3.387,7.024,2.463a10.048,10.048,0,0,0,6.569-6.363c.453-1.745-.339-2.259,1.474-2.668s.906-2.669,1.019-4.106-1.585-1.336,2.606-2.978,2.831-7.595,1.811-9.34-.056-5.747,5.268-9.238,7.137-9.955,4.986-10.059-5.872,1.745-6.288.513-5.627-4.31-5.627-6.158-2.341-6.261-3.248-6.808-2.114-3.661-.34-3.08,6.495,8.04,7,9.631.623,5.44,2.775,5.081,10.309-2.976,13.406-8.929c0,0-2.907-3.114-4-3.628s-1.151,1.283-1.833,1.608-7.835-4.79-3.793-6c0,0,3.284,4.054,5.059,3.678s2.3-.1,4.569,1.095,4.57.1,5.778.444,4.042,3.8,4.57,4.072,1.623-1.642,2.039-.274,2.02,11.529,4.965,12.5c0,0,.888-1.214,1.418-.017s1.624,2.736,2.794,1.643.112-3.457-.793-3.628-1.265-5.131-.585-5.7,4.663-3.2,5.418-4.908.492-.582,1.625-.377a3.569,3.569,0,0,0,2.417-.924l2.719,3.439v3.233s1.132.667,1.813.256,2.38-1.522,2.53,1.079-.6,4.977.869,6.413S353,94.117,353,94.9s.19,2.667,4.116,4.208c0,0-.151-3.253-.755-4.039s-2.833-1.914-3.285-3.214-1.512-4.131-1.115-4.928,1.814-.1,1.814-.1,3.512,2.643,3.342,3.746,3.965-.667,4.607-2.857-6.306-5.712-4.871-6.876,4.031-2.3,3.38-.761-1.742,2.014.014,2.643,2.064-1.368,1.61-2.155-.519-1.489.926-1.592,7.363-2.069,6.684-7.338-5.891-4.106-4.079-5.953,2.946-2.806,1.36-2.737-4.38,1.2-3.889-.821,1.624-2.19,2.133-1.933-.358,2.822.624,2.344,1.927-1.779,2.531-.513a11.93,11.93,0,0,0,2.53,2.873s-.84,1.66.32,2.147,3.984-.5,3.645-1.872-3.891-2.293-3.928-3.525.4-.735.963-1.3-.622-1.282.736-1.641,3.909-.873,2.55-6.415-4.135-4.909-4.815-4.122-.453-1.112-1.53-1.06-.906.565-.906.565-1.472-.128-.934-.9.953-.316,1.444-1.137a3.927,3.927,0,0,0,.151-2.326s5.21-.309,6.533.274,2.237.958,3.143-.12-2.463-1.83-.915-2.241,1.284-.855,1.888.685,1.491.889,1.794.1,1.6-1.54,1.265.136-2.568,1.608-1.246,3.422,5.258,3.925,5.343,5.362,1.812-3.362,1.755-4.593-4.077-1.557-3.7-2.892.527-.992,1.056-.581,1.114.445,1.4-.222.935.128,1.616.1.915-2.34,2.313-1.915,3.777.529,2.643-.395-3.625-.514-3.643-1.574,1.095-1.677,3.756,0S397.071,38.694,395.91,37.591ZM290.836,67.775c-.87,3.25-3.928,1.232-4.532,1.676s-1.926.513-4.947-.923-3.833.24-4.4,1.087a2.372,2.372,0,0,1-3.852-.488c-1.076-1.873-2.8-.949-3.795-1.54s-.359-.719-.34-1.059,1.132-.429-.151-2.327-3.55-.222-3.55-.222a9.6,9.6,0,0,1-4,.171c-.869-.1-1.813.478-2.794,1.488a2.634,2.634,0,0,1-2.908.736C254.582,66.1,255,64.9,255,64.9a61.757,61.757,0,0,0,5.815-3.9c.755-.822,1.851-3.353,2.567-3.08s1.435,1.1,2.116.89,1.4-1.369,2-1.471,4.079,3.165,4.729,3.7a1.315,1.315,0,0,1,.086,1.874c-.4.359-1.076-.437-2.152-.052s1.161.847,1.585,1.668,2.323-.462,2.662-1.335a3.181,3.181,0,0,1,1.417-1.668c.736-.539-.992-1.257-.992-1.257s-3.029-1.24-4.219-3.071.755-1.522.755-1.522,3.644,2.959,4.362,3.336.717,1.821.717,2.284,1.813,3.053,3,3.284,1.378-1.616,1-2.455-.773-1.241.671-1.087A2.425,2.425,0,0,1,283.1,63.3c.057.633,2.748,1.855,3.342,1.342a1.254,1.254,0,0,1,1.926.307c.283.693,1.369.129,2.2-.214S291.7,64.524,290.836,67.775Zm4.8-8.211c-.377.753-2.681.958-4.273.582s-2.826-1.266-4.147-.855-.756,2.121-2.719.855.377-3.695.377-3.695,1.491-1.044,2.078-1.01,1.083,1.728,1.566,1.881.926-.36,1.167-1.662,1.268-1.707,2.174-.75-.453,1.061-.5,1.677S296.009,58.811,295.631,59.564Zm10.13,4.842c-2.265.462-3.823-.692-3.059-1.976s.652-1.925-.226-2.361-3.333-2.284-2.974-3.208c0,0,1.983-2.542,3.285-2.477s2.436,1.006,1.529,1.553-2.794.48-1.624,1.745,5.192,2,3.663,2.668-1.812.463-1.019,1.283S308.026,63.943,305.761,64.406Z" transform="translate(-128.632 -19.489)" fill="#a7f8ff" opacity="0.8"/>
            <path id="Path_1718" data-name="Path 1718" d="M362.049,244.009s.981-1.643.378-2.327-1.1-1.864.717-2.531,3.909-2.362,4.021-3.49,1.926.153,1.642,1.693a9.932,9.932,0,0,1-1.36,3.387c-.622,1.181-.736,6.158-2.717,7.184S359.879,248.1,362.049,244.009Z" transform="translate(-191.31 -143.275)" fill="#a7f8ff" opacity="0.8"/>
            <path id="Path_1719" data-name="Path 1719" d="M464.826,195.873a4.644,4.644,0,0,1,2.15,1.369,15.157,15.157,0,0,1,3.947,5.852c.849,2.77,5.8,4.139,7.157,5.1s3.473.067,4,.684,1.547.274,3.474.376,5.873-.36,6.551,1.128,3.625-1.436,3.625-2-4.871-1.335-5.381-.718a3.413,3.413,0,0,1-2.87.325c-.19-.275-3.965.1-4.305-.275s0-1.334-1.737-1.368-3.436.547-3.966-.205-1.736-1.5-1.057-2.6-3.738-3.37-2.436-3.268-5.777-4.72-6.853-5.285S463.843,194.916,464.826,195.873Z" transform="translate(-246.016 -120.046)" fill="#a7f8ff" opacity="0.8"/>
            <path id="Path_1720" data-name="Path 1720" d="M493.587,197.658s.113.411.68,1.8.113,2.053.453,2.568.68.512,1.813.459,1.076-.418,1.982.023,1.945-.063,2.323,0-.529-1.886,0-2.092,1.615-2.241,1.926-2.086.4-1.283.141-1.436a2.066,2.066,0,0,1-.4-1.72c.114-.795,1.134-.589,1.134-.589s.293-1.523-.349-1.711a1.394,1.394,0,0,1-.945-1.026c0-.188-1.361-.546-1.453.48S493.308,196.871,493.587,197.658Z" transform="translate(-261.372 -118.256)" fill="#a7f8ff" opacity="0.8"/>
            <path id="Path_1721" data-name="Path 1721" d="M514.119,204.8a6.52,6.52,0,0,0-.152,1.4c0,.788-.831,1.1-.717,1.767a15.85,15.85,0,0,0,.566,1.7c.264.91-.942,1.559.3,1.627s.981-2.019,1.85-1.266-.076,1.44.906,1.268,2.191-.31,1.586-1.369-2.078-1.917-1.285-2.362a6.424,6.424,0,0,0,2.152-1.744c.453-.685,1.776-2.019.718-2.019s-1.209.377-2.569.172S514.226,204.166,514.119,204.8Z" transform="translate(-271.783 -125.247)" fill="#a7f8ff" opacity="0.8"/>
            <path id="Path_1722" data-name="Path 1722" d="M512.106,150.434s-2.069,1.206-1.473,2.207,1.245,1.333,1.756,1.053.142-1.129.708-1.36S512.735,149.994,512.106,150.434Z" transform="translate(-270.346 -94.587)" fill="#a7f8ff" opacity="0.8"/>
            <path id="Path_1723" data-name="Path 1723" d="M513.344,164.242a10.411,10.411,0,0,1-.329,2.019c-.2.41-.831,1.232.165,2.052s.241,2.326.845,2.395,1.69.129,1.661-.488,1.643.031,1.048.529-1.812.781-.877,1.934,2.69,1.181,1.84,1.437-1.954.789-1.558,1.485,1.387.234,1.558.388.737,2.053,1.983,1.8.086-1.439.709-1.566,1.048-2.592.367-3.234a2.071,2.071,0,0,1-.746-1.615c-.018-.446-.076-.5-.717-.856a1.7,1.7,0,0,1-.982-1.334c-.055-.531-2.208-.582-2.473-.616s.046-4.277-.151-4.687S513.381,163.86,513.344,164.242Z" transform="translate(-271.462 -102.237)" fill="#a7f8ff" opacity="0.8"/>
            <path id="Path_1724" data-name="Path 1724" d="M537.185,208.677s1.284.24,1.511,1.266.227,1.535,1.284,1.554,1.813-.049,2.416.7,2.266,1.846,1.624,2.6-1.4,1.13-.076,1.13,1.1.477,2.908.511,2.19.274,2.833-.751,1.126-1.131,2.413.444,3.742,2.328,3.591,1.2-2.947-2.532-2.455-3.148.675-1.609-1.136-2.191-7.208-3.9-7.927-3.455-1.622,1.582-2.114,1.254a2.083,2.083,0,0,1-1.17-1.836C540.886,206.9,535.9,206.18,537.185,208.677Z" transform="translate(-284.351 -127.068)" fill="#a7f8ff" opacity="0.8"/>
            <path id="Path_1725" data-name="Path 1725" d="M509.471,234.972s-5.724,5.27-6.28,5.337-7.768,2.31-7.314,4.772-.4,7.492-.4,7.492-2.059,2-.813,2.665a3.667,3.667,0,0,0,3.815-.219,4.465,4.465,0,0,1,3.387-.547c1.107.171.5-.137,2.315-1.129s6.873-1.54,8.006.616,1.19.872,1.983.667-.227,2.515,1.756,3.439,4.456.855,7.326,0,10.574-10.5,9.328-11.869-5.326-7.942-5.1-9.481-1.7-2.361-1.7-3.592-1.076-2.669-1.19-.41-.679,5.49-2.037,5.49-3.833-1.248-3.909-2.412,1.057-1.127,1.322-1.778.453-1.849-.792-1.677-2.379.155-2.568-.24-.982-.89-1.926,1.027-1.945,2.241-2.493,2.157S510.32,234.032,509.471,234.972Z" transform="translate(-261.736 -141.15)" fill="#a7f8ff" opacity="0.8"/>
            <path id="Path_1726" data-name="Path 1726" d="M543.413,298.133s.3.684.567.684,2.6-.547,2.19.308a9.606,9.606,0,0,1-2.039,2.327c-.377.307-2.454.547-2.454,0S542.112,297.327,543.413,298.133Z" transform="translate(-286.842 -179.299)" fill="#a7f8ff" opacity="0.8"/>
            <path id="Path_1727" data-name="Path 1727" d="M588.783,286.567c.025.067,1.134,2.964-.3,3.493s-13.171,6.9-12.515,7.239,1.64.545,3.905-.686,3.7-2.425,7.024-3.539,5.395-3.235,5.395-4.058-.222-.649-.863-.443-.906-.719-.906-1.643S588.531,285.868,588.783,286.567Z" transform="translate(-304.986 -172.477)" fill="#a7f8ff" opacity="0.8"/>
            <path id="Path_1728" data-name="Path 1728" d="M111.429,156.643s2.152-2.412,3.965,0,3.682,2,4.531,1.18-.454-.411-1.642-1.642-4.531-1.232-4.588-1.8-1.473-.085-1.473.394S109.088,156.182,111.429,156.643Z" transform="translate(-58.546 -96.742)" fill="#a7f8ff" opacity="0.8"/>
            <path id="Path_1729" data-name="Path 1729" d="M130.029,163.5s1.586.206,1.586-.445-.945-1.573.755-1.471,4.532,1.464,3.664,1.946-.454,1.1-1.247.893-2.19-.295-2.19.042.151.575-.378.471-.188-.513-.49-.547-1.813.172-1.852-.205S129.615,163.469,130.029,163.5Z" transform="translate(-68.725 -101.013)" fill="#a7f8ff" opacity="0.8"/>
            <path id="Path_1730" data-name="Path 1730" d="M246.507,60.618s.454,1.369,1.889.309,4.455-.41,3.889.581-2.115,1.608-3.133,2.018a3.561,3.561,0,0,1-3.285-1.128c-.226-.582-.6.444-1.058-.394S244.318,60.173,246.507,60.618Z" transform="translate(-129.506 -42.952)" fill="#a7f8ff" opacity="0.8"/>
          </g>
          <g id="Group_957" data-name="Group 957">
            <g id="Group_897" data-name="Group 897" transform="translate(295.103 299.197)">
              <g id="Group_896" data-name="Group 896">
                <path id="Path_1738" data-name="Path 1738" d="M505.266,252.1a6.5,6.5,0,0,0-2.511-.563l.184,1.056a6.5,6.5,0,0,0-2.392-.108l.839,2.009h.564l1.345.41.931,0,.83.244.923-.012Z" transform="translate(-499.487 -250.187)" fill="#33ccc8"/>
                <path id="Path_1739" data-name="Path 1739" d="M503.917,254.009a8.073,8.073,0,0,0-1.564,1.907s.379.014.515.031a5.681,5.681,0,0,1,1.147.307A6.272,6.272,0,0,0,503.917,254.009Z" transform="translate(-500.443 -251.609)" fill="#33ccc8"/>
                <path id="Path_1740" data-name="Path 1740" d="M505.241,251.536l.157.9a9.947,9.947,0,0,1-.04,2.341l.423.124h.193a8.09,8.09,0,0,1,1.423-2.947A5.791,5.791,0,0,0,505.241,251.536Z" transform="translate(-501.973 -250.187)" fill="#33ccc8"/>
                <path id="Path_1741" data-name="Path 1741" d="M508.577,252.673s-.136-.062-.355-.144a8.083,8.083,0,0,0-1.423,2.947l.738,0,.83.244.923-.012Z" transform="translate(-502.798 -250.76)" fill="#33ccc8"/>
                <path id="Path_1742" data-name="Path 1742" d="M508.779,248.379a5.415,5.415,0,0,1,4.526,2.836,5.232,5.232,0,0,1,3.818-.656l-1.354,2.712-5.772.06Z" transform="translate(-503.846 -248.379)" fill="#33ccc8"/>
                <g id="Group_889" data-name="Group 889" transform="translate(6.147 2.847)">
                  <path id="Path_1743" data-name="Path 1743" d="M511.361,257.151l0,.012s2.34-.059,3-.059c.012,0,.167-1.38.294-2.045C514.357,255.243,511.949,256.7,511.361,257.151Z" transform="translate(-511.361 -255.059)" fill="#33ccc8"/>
                </g>
                <g id="Group_890" data-name="Group 890" transform="translate(6.147 2.848)">
                  <path id="Path_1744" data-name="Path 1744" d="M511.361,257.152l0,.012s.731-.26,1.5-.491c.455.093.871.238,1.5.432.012,0,.167-1.38.294-2.045C514.357,255.244,511.949,256.7,511.361,257.152Z" transform="translate(-511.361 -255.06)" fill="#33ccc8"/>
                </g>
                <g id="Group_891" data-name="Group 891" transform="translate(9.225 2.831)">
                  <path id="Path_1745" data-name="Path 1745" d="M520.48,257.083c-.736-.651-1.553-1.3-2.333-2.061-.005,0-.162,1.383-.244,2.06Z" transform="translate(-517.903 -255.022)" fill="#33ccc8"/>
                </g>
                <g id="Group_892" data-name="Group 892" transform="translate(9.225 2.831)">
                  <path id="Path_1746" data-name="Path 1746" d="M520.48,257.083c-.736-.651-1.553-1.3-2.333-2.061-.005,0-.162,1.383-.244,2.06.5-.186,1.025-.387,1.345-.5C519.816,256.807,520.48,257.083,520.48,257.083Z" transform="translate(-517.903 -255.022)" fill="#33ccc8"/>
                </g>
                <path id="Path_1747" data-name="Path 1747" d="M523.776,255.87l1.007,1.728s3.574.038,3.854.025c-.185-.26-.387-.477-.5-.663,0-.167.009-.355.007-.514a4.435,4.435,0,0,1,.737-.678,6.55,6.55,0,0,0-3.249.481A8.345,8.345,0,0,0,523.776,255.87Z" transform="translate(-511.788 -252.594)" fill="#33ccc8"/>
                <g id="Group_893" data-name="Group 893" transform="translate(11.988 3.131)">
                  <path id="Path_1748" data-name="Path 1748" d="M528.867,255.764a6.636,6.636,0,0,0-3.242.483,8.377,8.377,0,0,0-1.849-.379l1.007,1.728s1.207.013,2.273.021A3.759,3.759,0,0,1,528.867,255.764Z" transform="translate(-523.776 -255.724)" fill="#33ccc8"/>
                </g>
                <g id="Group_894" data-name="Group 894" transform="translate(11.988 3.276)">
                  <path id="Path_1749" data-name="Path 1749" d="M523.776,256.064l1.007,1.728s.519.014,1.206.021a4.1,4.1,0,0,0-.433-1.393A8.078,8.078,0,0,0,523.776,256.064Z" transform="translate(-523.776 -256.064)" fill="#33ccc8"/>
                </g>
                <g id="Group_895" data-name="Group 895" transform="translate(13.837 3.131)">
                  <path id="Path_1750" data-name="Path 1750" d="M527.707,256.247a5.063,5.063,0,0,1,.394,1.361l1.036.009a3.76,3.76,0,0,1,1.811-1.853A6.652,6.652,0,0,0,527.707,256.247Z" transform="translate(-527.707 -255.724)" fill="#33ccc8"/>
                </g>
                <path id="Path_1751" data-name="Path 1751" d="M498.294,260.926v-1.514h.349v-.388h.283v-.367h.815l.467-.221h.543l1.359.419.924-.007.843.248,7.526-.115.469.119,3.4.052v1.773Z" transform="translate(-498.294 -254.149)" fill="#33ccc8"/>
              </g>
            </g>
            <g id="Group_899" data-name="Group 899" transform="translate(292.348 293.652)">
              <g id="Group_898" data-name="Group 898">
                <path id="Path_1752" data-name="Path 1752" d="M503.684,235.368c-6.211,0-11.247,4.561-11.247,10.189s5.036,10.191,11.247,10.191,11.246-4.562,11.246-10.191S509.9,235.368,503.684,235.368Zm0,19.231c-5.512,0-9.98-4.047-9.98-9.042s4.468-9.042,9.98-9.042,9.979,4.048,9.979,9.042S509.2,254.6,503.684,254.6Z" transform="translate(-492.437 -235.368)" fill="#33ccc8"/>
              </g>
            </g>
            <g id="Group_901" data-name="Group 901" transform="translate(272.261 257.686)">
              <g id="Group_900" data-name="Group 900">
                <path id="Path_1753" data-name="Path 1753" d="M456.44,158.458c0-.043-.107-.028-.107-.028s-.033-1.646-.041-1.846-.145-.192-.145-.192-.038-1.129-.05-1.242-.15-.105-.15-.105-.025-.6-.03-.749-.2-.142-.2-.142-.02-.514-.024-.608-.051-.086-.051-.086l-.1,0s-.007-.219-.012-.272-.124-.035-.124-.035-.008-.127-.008-.176-.028-.046-.028-.046h-.041s-.005-.094-.006-.136-.023-.038-.023-.038l-.061,0s0-.088-.005-.116-.016-.023-.016-.023h-.032l-.011-.087v-.009a.128.128,0,0,0-.008-.246c-.008-.341-.022-.933-.027-1.189,0-.092-.039-.106-.048-.108h0c-.008,0-.043.018-.042.11.005.256.015.845.019,1.187a.128.128,0,0,0,0,.248v.009l-.008.087h-.031s-.017-.006-.016.023,0,.117,0,.117h-.062s-.022,0-.021.038,0,.136,0,.136H454.9s-.028,0-.028.047v.176s-.121-.015-.123.039,0,.273,0,.273h-.1s-.048-.006-.048.088v.607s-.188,0-.188.15v.748s-.138,0-.147.11,0,1.243,0,1.243-.135,0-.135.2.032,1.846.032,1.846-.1-.011-.106.032c0,.017,0,1.265.008,2.821h-1.829c-.06-1.575-.107-2.844-.109-2.86,0-.043-.107-.028-.107-.028s-.035-1.646-.043-1.846-.144-.192-.144-.192-.038-1.13-.049-1.242-.151-.105-.151-.105-.024-.6-.03-.749-.194-.142-.194-.142-.021-.514-.025-.608-.051-.086-.051-.086l-.1,0s-.007-.219-.011-.272-.126-.035-.126-.035,0-.127-.008-.176-.028-.046-.028-.046h-.042s0-.094,0-.136-.022-.038-.022-.038l-.062,0s0-.088-.006-.116-.016-.023-.016-.023h-.032l-.013-.087v-.009a.128.128,0,0,0-.006-.246c-.008-.341-.022-.933-.029-1.189,0-.092-.038-.106-.048-.108h0c-.01,0-.045.018-.045.11,0,.256.014.845.02,1.187a.128.128,0,0,0,.005.248v.009l-.009.087h-.031s-.016-.006-.015.023,0,.117,0,.117h-.063s-.021,0-.021.038,0,.136,0,.136h-.041s-.026,0-.026.047v.176s-.123-.015-.124.039,0,.273,0,.273h-.1s-.046-.006-.046.088v.607s-.188,0-.188.15v.748s-.14,0-.146.11,0,1.243,0,1.243-.137,0-.137.2.033,1.846.033,1.846-.1-.011-.106.032.025,8.9.025,8.9a4.141,4.141,0,0,0,2.694-.046l-.212-5.645h1.815c.007,2.551.017,5.691.017,5.691a4.139,4.139,0,0,0,2.694-.046S456.445,158.5,456.44,158.458Z" transform="translate(-449.739 -150.987)" fill="#ee8f05"/>
              </g>
            </g>
            <g id="Group_903" data-name="Group 903" transform="translate(264.427 255.713)">
              <g id="Group_902" data-name="Group 902">
                <path id="Path_1754" data-name="Path 1754" d="M444.437,146.358c-6.267,0-11.348,4.6-11.348,10.283s5.081,10.282,11.348,10.282,11.35-4.6,11.35-10.282S450.705,146.358,444.437,146.358Zm0,19.407c-5.562,0-10.071-4.085-10.071-9.123s4.509-9.125,10.071-9.125,10.07,4.085,10.07,9.125S450,165.765,444.437,165.765Z" transform="translate(-433.089 -146.358)" fill="#ee8f05"/>
              </g>
            </g>
            <g id="Group_908" data-name="Group 908" transform="translate(190.197 218.19)">
              <g id="Group_905" data-name="Group 905" transform="translate(7.997 2.679)">
                <g id="Group_904" data-name="Group 904">
                  <path id="Path_1755" data-name="Path 1755" d="M300.79,81.431l-1.981-3.067V78.2h.133v-.548h-.457a16.033,16.033,0,0,1-.844-2.457c.108,0,.233,0,.233,0v-.359H297.7v-.168h-.2s-.694-5.421-.676-7.237a.463.463,0,0,1,.2-.406c.162-.085.207-.5-.124-.491l0-.154h.039l0-.108h-.049a.316.316,0,0,0-.229-.219l-.092-1.445h-.045l-.093,1.445a.317.317,0,0,0-.229.219h-.05v.108h.04l0,.154c-.333-.009-.287.407-.126.491a.462.462,0,0,1,.2.406c.018,1.816-.679,7.235-.679,7.235l-.194,0v.168h-.174V75.2h.234a16.226,16.226,0,0,1-.844,2.457h-.457V78.2h.133v.161L292.3,81.43h2.06a1.676,1.676,0,0,1-.016-.234,2.218,2.218,0,0,1,4.4,0,1.759,1.759,0,0,1-.017.234h2.059Zm-4.959-3.77s.233-1.153.328-1.716c.282,0,.841,0,.841,0l.34,1.716Z" transform="translate(-292.303 -64.61)" fill="#3da000"/>
                </g>
              </g>
              <g id="Group_907" data-name="Group 907">
                <g id="Group_906" data-name="Group 906">
                  <path id="Path_1756" data-name="Path 1756" d="M287.546,58.324c-6.761,0-12.241,4.965-12.241,11.09S280.785,80.5,287.546,80.5s12.239-4.965,12.239-11.089S294.306,58.324,287.546,58.324Zm0,20.93c-6,0-10.862-4.406-10.862-9.84s4.863-9.841,10.862-9.841,10.86,4.406,10.86,9.841S293.544,79.254,287.546,79.254Z" transform="translate(-275.305 -58.324)" fill="#3da000"/>
                </g>
              </g>
            </g>
            <g id="Group_910" data-name="Group 910" transform="translate(93.941 236.891)">
              <g id="Group_909" data-name="Group 909">
                <path id="Path_1757" data-name="Path 1757" d="M76.389,116.906v-.393l-.511-.129a1.226,1.226,0,0,1-.441-.822s.032.01.039-.015-.065-.648-.065-.648,0-.023.03-.052a1.707,1.707,0,0,0,.023-.549.115.115,0,0,1,.042-.084c.043-.03-.01-.216-.022-.3a1.312,1.312,0,0,1,0-.227s.088-.036.088-.068-.05-.4-.05-.4-.006-.018.032-.035-.038-.253-.038-.253-.015-.017.013-.079-.238-1.656-.238-1.656a.829.829,0,0,1,.245.133c.058.066.177.032.284-.046s.137-.118.167-.128.188-.085.255-.608a.649.649,0,0,1,.043-.153c.022-.032.039-.1.035-.274s.04-.071.046-.182.019-.233.019-.355-.071-.149-.121-.2l.178-.3-.029-.038.088-.125-.388-.384-.138-.039-.065.13-.025-.02-.145.263s-.191-.125-.238-.163a5.915,5.915,0,0,0-.445-.82c-.2-.217-.22-.167-.261-.168s-.009-.05-.043-.061.033-.062-.119-.1-.195-.222-.228-.3c0,0,.045-.027.034-.055s.017-.029.027-.043-.047-.058-.051-.09,0-.031.008-.044-.038-.127-.027-.165.008-.119-.022-.129-.058-.184-.058-.184a.267.267,0,0,1,.048.013c.018.007.033-.069,0-.153s.048-.078-.015-.183l.815-.109-.888-.029A.725.725,0,0,0,74.2,106l.616-.328-.732.213a1.483,1.483,0,0,0-.181-.113l.229-.526-.384.468s-.21-.039-.232-.041l-.421-.616.234.63a.616.616,0,0,0-.21.069l-.817-.36.7.453a.445.445,0,0,0-.076.123l-.633.071a1.656,1.656,0,0,0-.2-.657,3.231,3.231,0,0,1-.327-1.049,1.092,1.092,0,0,0-.281-.514l.011-.133a.1.1,0,0,1,.065-.073s.032-.053-.008-.072c0,0,.01-.037-.024-.035v-.022s.237,0,.293-.071l.026-.056a.032.032,0,0,0,.027-.032c0-.028-.054-.089-.054-.1s-.073-.116.082-.172a.86.86,0,0,0-.419-.116v-.124a.339.339,0,0,0,.119-.159.26.26,0,0,1,.12-.183.151.151,0,0,0,.083-.127.343.343,0,0,1,.024-.1c.011-.017-.034-.077-.069-.029s-.02.073-.042.09-.164.024-.213.1a.283.283,0,0,1,.011-.127c.022-.032-.095-.084-.11-.052s0,.032-.04.041-.115,0-.125.084c0,0-.011.014-.02,0s-.052-.045-.059,0a.044.044,0,0,1-.029.049c-.035.015-.255.118-.048.4l.009.133a.033.033,0,0,0-.022.04.633.633,0,0,0-.346.07s.076.056.05.125-.117.136-.05.185l.031.042s.045.076.293.073l.008.023-.017.009a.1.1,0,0,0-.073-.025c-.04.006-.071.042-.043.073s.151.127.151.131.007.068.007.068-.1,0-.1.066.077.077.107.077v.017s-.106-.018-.112.07c0,0-.019.076.113.072v.024s-.082-.01-.08.051.014.082.074.08c0,0,0,.068.043.083l0,.227s-.057.046-.007.051c0,0-.034.012-.035.04s-.006.053.02.051a.237.237,0,0,1,.053.162.036.036,0,0,0,.03.038.114.114,0,0,0,.048.116c.067.052.084.02.123-.009a6.147,6.147,0,0,0,.138.864,1.684,1.684,0,0,0,.191.422l.087.367a3.382,3.382,0,0,0-.214.567c-.008.122-.056.5.026.513a.2.2,0,0,0,.047,0s.021.04.091.017.073.02.1.026a.111.111,0,0,0,.046,0,.174.174,0,0,0,.13.28,1.433,1.433,0,0,0,.077.469,1.277,1.277,0,0,0,.016.129c.009.058-.049.078.05.185s.128.1.128.1v.072s-.637.825-.422,1.319a1.011,1.011,0,0,0,.215.257,2.728,2.728,0,0,0-.116.706,3.345,3.345,0,0,0,.024.371.239.239,0,0,0,.089.205,1.668,1.668,0,0,0,.078.37,3.924,3.924,0,0,0,.029.58c.033.116-.068.36.074.618,0,0,.01,0,.013-.009a.433.433,0,0,1,0,.159,4.2,4.2,0,0,0,.076.481,3.151,3.151,0,0,0,.222.642c.015.04-.072.591-.064.763a.715.715,0,0,1-.623.657.161.161,0,0,0-.105.09s-.114.023-.135.08l-.412.012-.17.083v.387l-.23.122,0,1.015h5.81v-.881Zm-3.471-10.8a.83.83,0,0,0,.019.091l-.441.107c-.049-.074-.1-.126-.154-.12,0,0-.051-.068-.047-.108a.125.125,0,0,0,0-.027Zm-.392.245.453-.011a.559.559,0,0,0,.008.074c.006.032-.031.23.008.266a.072.072,0,0,0,.106-.006c.01-.021.047-.022.035,0s-.218.32-.218.32-.249-.187-.259-.232-.017-.072,0-.086A1.067,1.067,0,0,0,72.526,106.354Z" transform="translate(-70.703 -102.199)" fill="#c62a29"/>
              </g>
            </g>
            <g id="Group_912" data-name="Group 912" transform="translate(85.855 234.72)">
              <g id="Group_911" data-name="Group 911">
                <path id="Path_1758" data-name="Path 1758" d="M64.568,97.105c-6.1,0-11.053,4.484-11.053,10.015s4.949,10.015,11.053,10.015,11.055-4.484,11.055-10.015S70.673,97.105,64.568,97.105Zm0,18.9c-5.417,0-9.808-3.979-9.808-8.886s4.391-8.886,9.808-8.886,9.809,3.978,9.809,8.886S69.986,116.006,64.568,116.006Z" transform="translate(-53.515 -97.105)" fill="#c62a29"/>
              </g>
            </g>
            <g id="Group_914" data-name="Group 914" transform="translate(95.903 209.152)" opacity="0.7">
              <g id="Group_913" data-name="Group 913">
                <path id="Path_1759" data-name="Path 1759" d="M74.875,94.993s.441-.581,1.318-1.569" transform="translate(-74.875 -69.425)" fill="none" stroke="#1f548b" stroke-linecap="round" stroke-miterlimit="10" stroke-width="2.058"/>
                <path id="Path_1760" data-name="Path 1760" d="M83.767,58.122C94.154,47.979,123.688,25.851,170.185,44.1" transform="translate(-79.584 -37.118)" fill="none" stroke="#1f548b" stroke-linecap="round" stroke-miterlimit="10" stroke-width="2.058" stroke-dasharray="9.303 9.303"/>
                <path id="Path_1761" data-name="Path 1761" d="M271.721,55.406q.982.406,1.974.836" transform="translate(-179.114 -47.611)" fill="none" stroke="#1f548b" stroke-linecap="round" stroke-miterlimit="10" stroke-width="2.058"/>
              </g>
            </g>
            <path id="Path_1762" data-name="Path 1762" d="M331.806,109.937s11.155,22.044,47.28,19.324" transform="translate(-115.028 130.252)" fill="none" stroke="#1f548b" stroke-linecap="round" stroke-miterlimit="10" stroke-width="2.058" stroke-dasharray="9.261" opacity="0.7"/>
            <path id="Path_1763" data-name="Path 1763" d="M491.315,170.483s20.342,7.94,16.124,29.662" transform="translate(-199.495 95.513)" fill="none" stroke="#1f548b" stroke-linecap="round" stroke-miterlimit="10" stroke-width="2.058" stroke-dasharray="9.261" opacity="0.7"/>
            <g id="Group_886" data-name="Group 886" transform="matrix(0.998, -0.07, 0.07, 0.998, 149.779, 259.467)">
              <path id="Path_1697" data-name="Path 1697" d="M50.3,18.758a.678.678,0,0,1-.778.52L.769,15.138A.65.65,0,0,1,.107,14.5L1.509.538a.675.675,0,0,1,.778-.52L51.039,4.157a.652.652,0,0,1,.66.642Z" transform="translate(3.341 1.417)" fill="#33ccc8"/>
              <path id="Path_1698" data-name="Path 1698" d="M4.24,16.354l-4.119.367.737-14.8L5.021.033Z" transform="translate(0.002 0.225)" fill="#7ae4e3"/>
              <path id="Path_1699" data-name="Path 1699" d="M.045,6.282,4.214,4.719,4.836.032S1.876,1.2.858,1.643a.908.908,0,0,0-.525.75C.228,3.314.045,6.282.045,6.282Z" transform="translate(0.521 0.055)" fill="#33ccc8"/>
              <path id="Path_1700" data-name="Path 1700" d="M49.746,4.462,1.012.009A.711.711,0,0,0,.229.637L.034,4.743,49.991,9.67,50.4,5.218A.709.709,0,0,0,49.746,4.462Z" transform="translate(4.701 0.031)" fill="#29aaa3"/>
              <path id="Path_1701" data-name="Path 1701" d="M10.65,2.429a.716.716,0,0,1-.7.713L.6,2.421a.708.708,0,0,1-.582-.809L.085.718a.713.713,0,0,1,.7-.711l9.351.721a.709.709,0,0,1,.582.809Z" transform="translate(24.134 10.759)" fill="#29aaa3"/>
            </g>
          </g>
        </g>
        <g id="Group_918" data-name="Group 918" transform="translate(297.86 259.746)">
          <g id="Group_917" data-name="Group 917">
            <g id="Group_915" data-name="Group 915" transform="translate(12.805)">
              <path id="Path_1764" data-name="Path 1764" d="M531.371,175.994h.243l-.055-20.174h-.113Z" transform="translate(-531.371 -155.82)" fill="#c62a29"/>
            </g>
            <path id="Path_1765" data-name="Path 1765" d="M541.572,173.361s-8.281,2.225-9.944.761c1.224-5.3,0-13.789,0-13.789S539.044,171.366,541.572,173.361Z" transform="translate(-518.702 -158.41)" fill="#d0d2d3"/>
            <path id="Path_1766" data-name="Path 1766" d="M520.95,157.831s-11.383,9.747-9.212,16.216a62.139,62.139,0,0,1,6.88-.49S519.69,169.372,520.95,157.831Z" transform="translate(-508.024 -156.974)" fill="#fff"/>
            <path id="Path_1767" data-name="Path 1767" d="M522.6,158.972s-8.156,8.606-7.91,16.239c.979-.324,7.629-.066,7.629-.066S521.345,170.513,522.6,158.972Z" transform="translate(-509.731 -157.629)" fill="#f1f2f2"/>
            <g id="Group_916" data-name="Group 916" transform="translate(0 17.969)">
              <path id="Path_1768" data-name="Path 1768" d="M531.925,197.977s-16.62,2.076-27.772.363c.075.574,1.188,1.092,2.421,1.491,0,0-1.7,2.04,9.932,2.04,0,0,8.342,0,10.618-1.144C527.124,200.725,525.606,199.579,531.925,197.977Z" transform="translate(-504.153 -197.977)" fill="#1f548b"/>
            </g>
          </g>
        </g>
      </g>
      <g id="Group_960" data-name="Group 960">
        <path id="Path_1664" data-name="Path 1664" d="M147.073,30.454c9.926,2.039,27.038,7.633,28.419,8.068.919.291,10.907,4.835,12.794,10.675,3.78,1.109,5.744,3.151,5.586,5.24-.385,5.114-3.407,22.279-3.407,22.279l-1.207.2-40.926.453L11.371,67.74a19.688,19.688,0,0,1-6.084-.991c-2.305-.786-3.834-4.432-4.965-7.528.07-5.89,2.026-11.957,6.54-22.319.869-1.994,3.326-4.774,5.331-5.374C17.36,23.6,35.256,7.888,40.1,3.767A17.962,17.962,0,0,1,51.242.274c20.95,1.4,69.5,2.98,76.042,5.387C130.127,6.705,141.673,24.347,147.073,30.454Z" transform="translate(91.948 278.195) rotate(-3)" fill="url(#linear-gradient)"/>
        <path id="Path_1665" data-name="Path 1665" d="M17.109,32.811c6.854-12.436,16.216-24.231,24.6-29,1.926-1.1.98-2.581-.164-3.6A10.283,10.283,0,0,0,40.082,1.22C35.236,5.341,17.34,21.052,12.172,28.98c-2,.6-4.462,3.379-5.331,5.374a97.252,97.252,0,0,0-5.6,15.279,34.056,34.056,0,0,0-.935,7.041c1.13,3.1,2.66,6.742,4.965,7.527.1.036.195.064.292.094C7.17,56.005,8.455,46.559,11.919,37.8,12.947,35.208,14.927,33,17.109,32.811Z" transform="translate(92.1 280.739) rotate(-3)" fill="#2390ff"/>
        <path id="Path_1666" data-name="Path 1666" d="M0,0" transform="translate(239.01 287.488) rotate(-3)" fill="#c62a29"/>
        <path id="Path_1667" data-name="Path 1667" d="M17.131,21.787C12.736,16.639,5.082,5.1.636,0,.62.892-1.233,1.226,1.507,4.4,4.17,7.48,14.259,21.673,15.91,23.973c.152.213.685.32.783.148.178-.308.819-.944.836-1.517A1.477,1.477,0,0,0,17.131,21.787Z" transform="translate(221.587 279.359) rotate(-3)" fill="#fff"/>
        <path id="Path_1668" data-name="Path 1668" d="M39.947,18.471C38.061,12.631,28.074,8.087,27.152,7.8,25.827,7.38,10.045,2.22,0,0,1.047,2.088,3.438,6.521,4.711,9.642c1.8,4.422,1.027,5.84,3.062,6.319s31.843,3.184,31.843,3.184.194-.273.418-.644Z" transform="translate(241.697 301.115) rotate(-3)" fill="#33ccc8"/>
        <path id="Path_1669" data-name="Path 1669" d="M25.958,7.529C24.685,7.128,10.057,2.345,0,0A82.84,82.84,0,0,1,4.759,8.253c1.813,4.294,1.632,5.191,3.668,5.67,1.723.405,23.31,3.185,29.927,3.791-.08-.155-.3-1.061-.391-1.219C34.96,11.5,26.786,7.789,25.958,7.529Z" transform="translate(242.903 301.321) rotate(-3)" fill="#2390ff"/>
        <path id="Path_1670" data-name="Path 1670" d="M3.729,14.991A135.081,135.081,0,0,1,15.909,1.026a1.532,1.532,0,0,0-.343-.949C10.865,4.286,4.813,9.905.081,14.927,1.21,15.713,2.8,16.158,3.729,14.991Z" transform="translate(110.712 286.364) rotate(-3)" fill="#fff"/>
        <path id="Path_1671" data-name="Path 1671" d="M1.188,24.77C7.7,15.3,21.11-.212,38.927.2c23.724.54,58.626,1.526,64.465,8.612,5.4,6.555,21.171,22.679,20.6,30.693,0,0-90.255-5.345-119.746-7.493C2.021,31.847-1.66,28.916,1.188,24.77Z" transform="translate(117.857 282.832) rotate(-3)" fill="#a2ecff"/>
        <path id="Path_1672" data-name="Path 1672" d="M2.46,21.526c4.1-5.549,13.653-16.751,25.732-19.381,7.762-1.69,15.048-.524,29.973-.2-.552-.109-.466-.6-.426-1.05C50,.527,42.216.334,35.366.179,19.575-.183,7.248,11.955.116,21.317,1.2,21.41,2.123,21.522,2.46,21.526Z" transform="translate(121.413 282.664) rotate(-3)" fill="#007fff"/>
        <path id="Path_1673" data-name="Path 1673" d="M1.12,13.857S4.418,6.606,14.731,2.5C19.593.569,24.458-.456,35.772.5c7.532.639,5.743,2.623,5.837,5.273s-1.391,13.349-1.391,13.349-.1,3.177-5.333,3.5-33.03-2.356-33.03-2.356S-1.562,18.449,1.12,13.857Z" transform="translate(131.842 284.674) rotate(-3)" fill="#fff"/>
        <path id="Path_1674" data-name="Path 1674" d="M70.362,31.55C68.128,27.219,54.44,9.236,54.44,9.236a14.813,14.813,0,0,0-9.379-5.753c-6.234-1.02-33.6-3.192-33.6-3.192S6.617-1.259,5.809,3.462.435,54.683.435,54.683s-1.311,6.9,4.433,9.511l56.865,3.862s6.428-.368,7.888-4.983,2.793-20.724,2.793-20.724S72.593,35.878,70.362,31.55ZM67.984,62.634c-1.034,3.268-5.546,3.81-6.279,3.875L5.335,62.682c-4.189-2.149-3.265-7.494-3.224-7.725l.011-.058.006-.062C2.175,54.373,6.7,8.331,7.491,3.712,7.763,2.118,8.534,1.486,10.068,1.6a4.636,4.636,0,0,1,.857.146l.193.06.215.021C11.606,1.849,38.69,4.006,44.777,5a13.04,13.04,0,0,1,8.21,5.022l.028.042.03.039c.134.178,13.629,17.923,15.774,22.087,1.96,3.8,1.905,9.566,1.895,10.069C70.637,43.174,69.343,58.334,67.984,62.634Z" transform="translate(169.578 280.888) rotate(-3)" fill="#33ccc8"/>
        <path id="Path_1675" data-name="Path 1675" d="M69.976,38.725h0A21.105,21.105,0,0,0,68.1,31.538C65.861,27.207,52.174,9.225,52.174,9.225A11.589,11.589,0,0,0,50.84,7.663c-.3-.263-.583-.51-.861-.738-1.985-1.63-4.116-3.3-11.01-4.339C29.514,1.166,9.2.281,9.2.281S4.35-1.27,3.543,3.451c-.445,2.6-2.021,17.793-3.356,31Z" transform="translate(171.842 280.78) rotate(-3)" fill="#a2ecff"/>
        <path id="Path_1676" data-name="Path 1676" d="M1.5,3.75.094,16.786s-.2,3.995,2.912,4.376c2.767.339,35.892,2.49,43.162,2.96.9.059,1.052.085,1.405.089,5.172.1,5.51-2.613,4.923-3.7C50.572,16.968,42.24,3.532,37.362,2.4,31.706,1.1,22.36.719,7.22.046,7.22.046,2.307-.374,1.5,3.75Z" transform="translate(177.646 284.346) rotate(-3)" fill="#fff"/>
        <path id="Path_1677" data-name="Path 1677" d="M15.294,2.68a1.684,1.684,0,0,1-1.721,1.631L1.489,3.491A1.669,1.669,0,0,1,.015,1.643h0A1.683,1.683,0,0,1,1.735.012L13.82.833A1.669,1.669,0,0,1,15.294,2.68Z" transform="translate(175.93 310.103) rotate(-3)" fill="#29aaa3"/>
        <path id="Path_1678" data-name="Path 1678" d="M23.375.163C11.323-.655.917,7.533.138,18.453.122,18.726.11,19,.1,19.274l1.847.13,40.929-.453.9-.151C43.067,9.016,34.457.917,23.375.163Z" transform="translate(241.253 325.341) rotate(-3)" fill="#9bf5f4"/>
        <path id="Path_1679" data-name="Path 1679" d="M23.142.162C11.671-.617,1.7,6.763.092,16.89a18.449,18.449,0,0,0,2.721.379L43.6,20.137C43.6,9.763,34.723.949,23.142.162Z" transform="translate(103.228 325.067) rotate(-3)" fill="#9bf5f4"/>
        <g id="Group_880" data-name="Group 880" transform="translate(247.028 328.604) rotate(-3)">
          <path id="Path_1680" data-name="Path 1680" d="M37.606,18.384c-.67,9.374-9.6,16.4-19.946,15.7S-.536,25.215.132,15.839,9.733-.563,20.08.14,38.273,9.011,37.606,18.384Z" transform="translate(0 0)" fill="#1f548b"/>
          <path id="Path_1681" data-name="Path 1681" d="M26.231,12.823c-.464,6.541-6.693,11.444-13.911,10.952S-.374,17.589.092,11.05,6.787-.393,14.006.1,26.7,6.285,26.231,12.823Z" transform="translate(5.706 5.175)" fill="#e6e7e8"/>
          <path id="Path_1682" data-name="Path 1682" d="M15.875,7.76c-.282,3.957-4.052,6.924-8.418,6.627s-7.683-3.744-7.4-7.7S4.108-.236,8.475.059,16.155,3.8,15.875,7.76Z" transform="translate(10.903 9.889)" fill="#09d6e8"/>
        </g>
        <path id="Path_1769" data-name="Path 1769" d="M18.775.092C29.145.143,37.592,7.8,37.643,17.2S29.329,34.182,18.96,34.131.143,26.419.092,17.02,8.406.041,18.775.092Z" transform="translate(108.571 329.386) rotate(-3)" fill="#1f548b"/>
        <path id="Path_1770" data-name="Path 1770" d="M13.1.064C20.331.1,26.223,5.444,26.259,12s-5.8,11.844-13.033,11.808S.1,18.429.064,11.872,5.864.029,13.1.064Z" transform="translate(114.54 334.255) rotate(-3)" fill="#e6e7e8"/>
        <path id="Path_1683" data-name="Path 1683" d="M15.874,7.76c-.283,3.956-4.051,6.924-8.419,6.627s-7.68-3.742-7.4-7.7S4.108-.237,8.475.059,16.156,3.8,15.874,7.76Z" transform="translate(119.977 338.69) rotate(-3)" fill="#09d6e8"/>
        <g id="Group_882" data-name="Group 882" transform="translate(93.695 328.404) rotate(-3)">
          <path id="Path_1684" data-name="Path 1684" d="M6.308,6.988a37.708,37.708,0,0,0-1.594,6.444c-.266.047-.624.139-.961.228C1.138,11.419.484,6.54.021,3.883.24,2.45.1.922.565.095A7.925,7.925,0,0,1,1.579.008Z" transform="translate(0.959 0.005)" fill="#33ccc8"/>
          <path id="Path_1685" data-name="Path 1685" d="M6.379,7.168a31.919,31.919,0,0,0-1.667,6.4A17.249,17.249,0,0,1,.023,4.323,14.26,14.26,0,0,1,1.524.007Z" transform="translate(0.001 0.093)" fill="#7ae4e3"/>
          <path id="Path_1686" data-name="Path 1686" d="M3.872,11.041A21.713,21.713,0,0,1,.017,3.136,13.494,13.494,0,0,1,1.106.005L5.022,5.988A16.309,16.309,0,0,0,3.872,11.041Z" transform="translate(0.522 1.34)" fill="#e6e7e8"/>
        </g>
        <path id="Path_1714" data-name="Path 1714" d="M0,0" transform="matrix(0.998, -0.07, 0.07, 0.998, 221.071, 276.029)" fill="none"/>
        <rect id="Rectangle_454" data-name="Rectangle 454" width="24.628" height="2.575" rx="1.287" transform="translate(85.968 354.985)" fill="#1f548b" opacity="0.31"/>
        <rect id="Rectangle_455" data-name="Rectangle 455" width="24.628" height="2.575" rx="1.287" transform="translate(105.86 364.425)" fill="#1f548b" opacity="0.31"/>
        <rect id="Rectangle_456" data-name="Rectangle 456" width="24.628" height="2.575" rx="1.287" transform="translate(125.752 360.134)" fill="#1f548b" opacity="0.31"/>
        <rect id="Rectangle_457" data-name="Rectangle 457" width="12.314" height="2.575" rx="1.287" transform="translate(100.176 360.134)" fill="#1f548b" opacity="0.31"/>
        <rect id="Rectangle_458" data-name="Rectangle 458" width="13.261" height="2.575" rx="1.287" transform="translate(240.369 358.418)" fill="#1f548b" opacity="0.31"/>
        <rect id="Rectangle_454-2" data-name="Rectangle 454" width="24.628" height="2.575" rx="1.287" transform="translate(228.055 354.127)" fill="#1f548b" opacity="0.31"/>
        <rect id="Rectangle_455-2" data-name="Rectangle 455" width="24.628" height="2.575" rx="1.287" transform="translate(247.947 362.709)" fill="#1f548b" opacity="0.31"/>
        <rect id="Rectangle_456-2" data-name="Rectangle 456" width="24.628" height="2.575" rx="1.287" transform="translate(267.839 359.276)" fill="#1f548b" opacity="0.31"/>
      </g>
    </g>
  </g>
</svg>
