<svg xmlns="http://www.w3.org/2000/svg" width="58" height="58" viewBox="0 0 58 58">
  <path id="Exclusion_1" data-name="Exclusion 1" d="M-2202-783a28.82,28.82,0,0,1-11.288-2.279,28.907,28.907,0,0,1-9.218-6.215,28.909,28.909,0,0,1-6.215-9.218A28.821,28.821,0,0,1-2231-812a28.821,28.821,0,0,1,2.279-11.288,28.909,28.909,0,0,1,6.215-9.218,28.907,28.907,0,0,1,9.218-6.215A28.82,28.82,0,0,1-2202-841a28.82,28.82,0,0,1,11.288,2.279,28.907,28.907,0,0,1,9.218,6.215,28.9,28.9,0,0,1,6.215,9.218A28.82,28.82,0,0,1-2173-812a28.82,28.82,0,0,1-2.279,11.288,28.9,28.9,0,0,1-6.215,9.218,28.907,28.907,0,0,1-9.218,6.215A28.82,28.82,0,0,1-2202-783Zm-5.5-22.8v2.424l-1.988,1.988,2.057,4.258,2.612-2.611.319-5.448,14.288-14.287a8.4,8.4,0,0,0,1.583-2.765c.565-1.576.5-2.776-.2-3.469a2.161,2.161,0,0,0-1.592-.576,5.677,5.677,0,0,0-1.877.379,8.4,8.4,0,0,0-2.765,1.583l-14.288,14.288-5.448.319-2.612,2.612,4.269,2.06,2.027-2.027,2.381.042-2.774,2.773.009,0-1.657,1.656,1.212,1.212,1.654-1.654.008.016,2.776-2.776Zm13.318-7.246h0l-5.723,5.723,3.989,10.183,3.657-3.659-1.923-12.247Zm-19.623-9.169h0l-3.658,3.658,10.224,4,5.731-5.731-12.3-1.931Z" transform="translate(2231 841)" fill="#fff"/>
</svg>
