<svg xmlns="http://www.w3.org/2000/svg" width="60" height="59.999" viewBox="0 0 60 59.999">
  <path id="Exclusion_4" data-name="Exclusion 4" d="M-2201-781a29.814,29.814,0,0,1-11.678-2.358,29.9,29.9,0,0,1-9.536-6.429,29.9,29.9,0,0,1-6.429-9.536A29.815,29.815,0,0,1-2231-811a29.816,29.816,0,0,1,2.357-11.677,29.9,29.9,0,0,1,6.429-9.536,29.9,29.9,0,0,1,9.536-6.429A29.816,29.816,0,0,1-2201-841a29.814,29.814,0,0,1,11.677,2.357,29.9,29.9,0,0,1,9.536,6.429,29.9,29.9,0,0,1,6.429,9.536A29.816,29.816,0,0,1-2171-811a29.815,29.815,0,0,1-2.357,11.677,29.9,29.9,0,0,1-6.429,9.536,29.9,29.9,0,0,1-9.536,6.429A29.813,29.813,0,0,1-2201-781Zm-15-16.542v.176a3.086,3.086,0,0,0,3.077,3.013h21.065a2.994,2.994,0,0,0,2.968-3.013v-.176Zm3.077-14.351a3.078,3.078,0,0,0-3.077,3v7.968h27.109V-808.9a2.95,2.95,0,0,0-2.967-3Zm11.035-13.891a.786.786,0,0,1,.565.229l14.894,14.892a.8.8,0,0,1,.236.564.834.834,0,0,1-.258.566l-.843.823v3.119l2.4-2.382a3.012,3.012,0,0,0,.019-4.252l-14.893-14.894a2.981,2.981,0,0,0-2.124-.88,2.981,2.981,0,0,0-2.124.88l-8.156,8.155a3.006,3.006,0,0,0-.88,2.143,3.006,3.006,0,0,0,.88,2.143l1.352,1.389h3.119l-2.911-2.948a.825.825,0,0,1-.234-.585.805.805,0,0,1,.234-.574l1.077-1.044,5.117,5.151h4.91l-7.573-7.61,4.623-4.642A.807.807,0,0,1-2201.888-825.785Zm-6.751,22.142a2.168,2.168,0,0,1-1.513-.612,2.18,2.18,0,0,1-1.514.612,2.189,2.189,0,0,1-2.185-2.187,2.188,2.188,0,0,1,2.185-2.186,2.175,2.175,0,0,1,1.514.61,2.171,2.171,0,0,1,1.513-.61,2.188,2.188,0,0,1,2.185,2.186A2.189,2.189,0,0,1-2208.639-803.643Z" transform="translate(2231 841)" fill="#fff"/>
</svg>
