<svg xmlns="http://www.w3.org/2000/svg" width="376" height="123.269" viewBox="0 0 376 123.269">
  <g id="_256093-P4JXR7-61" data-name="256093-P4JXR7-61" transform="translate(0.7 -79.7)">
    <g id="Group_620" data-name="Group 620" transform="translate(-0.2 80.2)">
      <path id="Path_1423" data-name="Path 1423" d="M298.275,220.429V155.9H277.5v64.529" transform="translate(-69.225 -98.16)" fill="none" stroke="#00d8cb" stroke-linecap="round" stroke-linejoin="round" stroke-miterlimit="10" stroke-width="1"/>
      <path id="Path_1424" data-name="Path 1424" d="M285.8,222.161V167.471A4.229,4.229,0,0,1,290,163.2h0a4.229,4.229,0,0,1,4.2,4.271v54.689" transform="translate(-71.3 -99.892)" fill="none" stroke="#00d8cb" stroke-linecap="round" stroke-linejoin="round" stroke-miterlimit="10" stroke-width="1"/>
      <g id="Group_615" data-name="Group 615" transform="translate(307.05)">
        <rect id="Rectangle_331" data-name="Rectangle 331" width="24.525" height="4.729" transform="translate(1.275)" fill="none" stroke="#00d8cb" stroke-linecap="round" stroke-linejoin="round" stroke-miterlimit="10" stroke-width="1"/>
        <rect id="Rectangle_332" data-name="Rectangle 332" width="21.6" height="3.051" transform="translate(2.775 4.729)" fill="none" stroke="#00d8cb" stroke-linecap="round" stroke-linejoin="round" stroke-miterlimit="10" stroke-width="1"/>
        <rect id="Rectangle_333" data-name="Rectangle 333" width="11.325" height="10.907" transform="translate(7.875 7.78)" fill="none" stroke="#00d8cb" stroke-linecap="round" stroke-linejoin="round" stroke-miterlimit="10" stroke-width="1"/>
        <rect id="Rectangle_334" data-name="Rectangle 334" width="21.6" height="2.898" transform="translate(2.775 18.687)" fill="none" stroke="#00d8cb" stroke-linecap="round" stroke-linejoin="round" stroke-miterlimit="10" stroke-width="1"/>
        <rect id="Rectangle_335" data-name="Rectangle 335" width="1.725" height="4.195" transform="translate(12.675 11.136)" fill="none" stroke="#00d8cb" stroke-linecap="round" stroke-linejoin="round" stroke-miterlimit="10" stroke-width="1"/>
        <rect id="Rectangle_336" data-name="Rectangle 336" width="1.725" height="4.195" transform="translate(9.45 11.136)" fill="none" stroke="#00d8cb" stroke-linecap="round" stroke-linejoin="round" stroke-miterlimit="10" stroke-width="1"/>
        <rect id="Rectangle_337" data-name="Rectangle 337" width="1.725" height="4.195" transform="translate(17.657 15.287) rotate(180)" fill="none" stroke="#00d8cb" stroke-linecap="round" stroke-linejoin="round" stroke-miterlimit="10" stroke-width="1"/>
        <path id="Path_1425" data-name="Path 1425" d="M433.575,108.5h-21.6l-2.775,2.67h27.15Z" transform="translate(-409.2 -86.914)" fill="none" stroke="#00d8cb" stroke-linecap="round" stroke-linejoin="round" stroke-miterlimit="10" stroke-width="1"/>
        <rect id="Rectangle_338" data-name="Rectangle 338" width="21.6" height="2.898" transform="translate(24.336 37.754) rotate(180)" fill="none" stroke="#00d8cb" stroke-linecap="round" stroke-linejoin="round" stroke-miterlimit="10" stroke-width="1"/>
        <path id="Path_1426" data-name="Path 1426" d="M411.975,125.146h21.6l2.775-2.746H409.2Z" transform="translate(-409.2 -90.212)" fill="none" stroke="#00d8cb" stroke-linecap="round" stroke-linejoin="round" stroke-miterlimit="10" stroke-width="1"/>
        <rect id="Rectangle_339" data-name="Rectangle 339" width="1.425" height="5.11" transform="translate(0 24.255)" fill="none" stroke="#00d8cb" stroke-linecap="round" stroke-linejoin="round" stroke-miterlimit="10" stroke-width="1"/>
        <rect id="Rectangle_340" data-name="Rectangle 340" width="1.425" height="5.11" transform="translate(3.675 24.255)" fill="none" stroke="#00d8cb" stroke-linecap="round" stroke-linejoin="round" stroke-miterlimit="10" stroke-width="1"/>
        <rect id="Rectangle_341" data-name="Rectangle 341" width="1.425" height="5.11" transform="translate(7.35 24.255)" fill="none" stroke="#00d8cb" stroke-linecap="round" stroke-linejoin="round" stroke-miterlimit="10" stroke-width="1"/>
        <rect id="Rectangle_342" data-name="Rectangle 342" width="1.425" height="5.11" transform="translate(11.025 24.255)" fill="none" stroke="#00d8cb" stroke-linecap="round" stroke-linejoin="round" stroke-miterlimit="10" stroke-width="1"/>
        <rect id="Rectangle_343" data-name="Rectangle 343" width="1.425" height="5.11" transform="translate(14.7 24.255)" fill="none" stroke="#00d8cb" stroke-linecap="round" stroke-linejoin="round" stroke-miterlimit="10" stroke-width="1"/>
        <rect id="Rectangle_344" data-name="Rectangle 344" width="1.425" height="5.11" transform="translate(18.375 24.255)" fill="none" stroke="#00d8cb" stroke-linecap="round" stroke-linejoin="round" stroke-miterlimit="10" stroke-width="1"/>
        <rect id="Rectangle_345" data-name="Rectangle 345" width="1.425" height="5.11" transform="translate(22.05 24.255)" fill="none" stroke="#00d8cb" stroke-linecap="round" stroke-linejoin="round" stroke-miterlimit="10" stroke-width="1"/>
        <rect id="Rectangle_346" data-name="Rectangle 346" width="1.425" height="5.11" transform="translate(25.725 24.255)" fill="none" stroke="#00d8cb" stroke-linecap="round" stroke-linejoin="round" stroke-miterlimit="10" stroke-width="1"/>
        <rect id="Rectangle_347" data-name="Rectangle 347" width="27.15" height="2.822" transform="translate(0 29.366)" fill="none" stroke="#00d8cb" stroke-linecap="round" stroke-linejoin="round" stroke-miterlimit="10" stroke-width="1"/>
        <rect id="Rectangle_348" data-name="Rectangle 348" width="2.25" height="9" transform="translate(12.45 37.756)" fill="none" stroke="#00d8cb" stroke-linecap="round" stroke-linejoin="round" stroke-miterlimit="10" stroke-width="1"/>
        <rect id="Rectangle_349" data-name="Rectangle 349" width="2.25" height="9" transform="translate(7.35 37.756)" fill="none" stroke="#00d8cb" stroke-linecap="round" stroke-linejoin="round" stroke-miterlimit="10" stroke-width="1"/>
        <line id="Line_7" data-name="Line 7" x2="4.575" y2="4.653" transform="translate(2.775 37.756)" fill="none" stroke="#00d8cb" stroke-linecap="round" stroke-linejoin="round" stroke-miterlimit="10" stroke-width="1"/>
        <rect id="Rectangle_350" data-name="Rectangle 350" width="2.25" height="9" transform="translate(19.775 46.806) rotate(180)" fill="none" stroke="#00d8cb" stroke-linecap="round" stroke-linejoin="round" stroke-miterlimit="10" stroke-width="1"/>
        <line id="Line_8" data-name="Line 8" x1="4.575" y2="4.653" transform="translate(19.8 37.756)" fill="none" stroke="#00d8cb" stroke-linecap="round" stroke-linejoin="round" stroke-miterlimit="10" stroke-width="1"/>
        <path id="Path_1427" data-name="Path 1427" d="M425.225,141.5H419v4.043h12.45V141.5Z" transform="translate(-411.65 -94.743)" fill="none" stroke="#00d8cb" stroke-linecap="round" stroke-linejoin="round" stroke-miterlimit="10" stroke-width="1"/>
        <path id="Path_1428" data-name="Path 1428" d="M431.45,218.27V146.8H419v71.47" transform="translate(-411.65 -96.001)" fill="none" stroke="#00d8cb" stroke-linecap="round" stroke-linejoin="round" stroke-miterlimit="10" stroke-width="1"/>
        <path id="Path_1429" data-name="Path 1429" d="M430.5,219.005V151.731a1.841,1.841,0,0,0-1.8-1.831h0a1.841,1.841,0,0,0-1.8,1.831v67.275h-2.1V151.731A1.841,1.841,0,0,0,423,149.9h0a1.841,1.841,0,0,0-1.8,1.831v67.275" transform="translate(-412.2 -96.736)" fill="none" stroke="#00d8cb" stroke-linecap="round" stroke-linejoin="round" stroke-miterlimit="10" stroke-width="1"/>
      </g>
      <g id="Group_616" data-name="Group 616" transform="translate(11.325 34.934)">
        <path id="Path_1430" data-name="Path 1430" d="M41.825,213.335V126H38.75v5.873H35.825V126h-3v5.873h-3V126h-3v5.873H23.9V126h-3v5.873h-3V126h-3v87.335" transform="translate(-14.9 -126)" fill="none" stroke="#00d8cb" stroke-linecap="round" stroke-linejoin="round" stroke-miterlimit="10" stroke-width="1"/>
        <path id="Path_1431" data-name="Path 1431" d="M76.225,221.354V159.8H70.9v5.873H67.975V159.8h-3v5.873h-3V159.8h-3v5.873H56.05V159.8H50.8v61.554" transform="translate(-23.875 -134.019)" fill="none" stroke="#00d8cb" stroke-linecap="round" stroke-linejoin="round" stroke-miterlimit="10" stroke-width="1"/>
        <line id="Line_9" data-name="Line 9" y2="81.462" transform="translate(4.425 5.873)" fill="none" stroke="#00d8cb" stroke-linecap="round" stroke-linejoin="round" stroke-miterlimit="10" stroke-width="1"/>
        <line id="Line_10" data-name="Line 10" y2="81.462" transform="translate(22.425 5.873)" fill="none" stroke="#00d8cb" stroke-linecap="round" stroke-linejoin="round" stroke-miterlimit="10" stroke-width="1"/>
        <path id="Path_1432" data-name="Path 1432" d="M35.4,161.8H27.6v-9.229a3.907,3.907,0,0,1,3.9-3.966h0a3.907,3.907,0,0,1,3.9,3.966Z" transform="translate(-18.075 -131.362)" fill="none" stroke="#00d8cb" stroke-linecap="round" stroke-linejoin="round" stroke-miterlimit="10" stroke-width="1"/>
        <rect id="Rectangle_351" data-name="Rectangle 351" width="7.8" height="7.933" transform="translate(9.525 46.07)" fill="none" stroke="#00d8cb" stroke-linecap="round" stroke-linejoin="round" stroke-miterlimit="10" stroke-width="1"/>
        <path id="Path_1433" data-name="Path 1433" d="M111.55,213.335V126h-3v5.873h-2.925V126H102.55v5.873H99.625V126h-3v5.873h-3V126h-3v5.873H87.7V126h-3v87.335" transform="translate(-32.35 -126)" fill="none" stroke="#00d8cb" stroke-linecap="round" stroke-linejoin="round" stroke-miterlimit="10" stroke-width="1"/>
        <line id="Line_11" data-name="Line 11" y2="81.462" transform="translate(56.7 5.873)" fill="none" stroke="#00d8cb" stroke-linecap="round" stroke-linejoin="round" stroke-miterlimit="10" stroke-width="1"/>
        <line id="Line_12" data-name="Line 12" y2="81.462" transform="translate(74.7 5.873)" fill="none" stroke="#00d8cb" stroke-linecap="round" stroke-linejoin="round" stroke-miterlimit="10" stroke-width="1"/>
        <path id="Path_1434" data-name="Path 1434" d="M105.2,161.8H97.4v-9.229a3.907,3.907,0,0,1,3.9-3.966h0a3.907,3.907,0,0,1,3.9,3.966Z" transform="translate(-35.525 -131.362)" fill="none" stroke="#00d8cb" stroke-linecap="round" stroke-linejoin="round" stroke-miterlimit="10" stroke-width="1"/>
        <rect id="Rectangle_352" data-name="Rectangle 352" width="7.8" height="7.933" transform="translate(61.875 46.07)" fill="none" stroke="#00d8cb" stroke-linecap="round" stroke-linejoin="round" stroke-miterlimit="10" stroke-width="1"/>
        <path id="Path_1435" data-name="Path 1435" d="M76.225,196.8h0Z" transform="translate(-23.875 -142.797)" fill="none" stroke="#00d8cb" stroke-linecap="round" stroke-linejoin="round" stroke-miterlimit="10" stroke-width="1"/>
        <path id="Path_1436" data-name="Path 1436" d="M76.225,201.6h0Z" transform="translate(-23.875 -143.936)" fill="none" stroke="#00d8cb" stroke-linecap="round" stroke-linejoin="round" stroke-miterlimit="10" stroke-width="1"/>
        <ellipse id="Ellipse_16" data-name="Ellipse 16" cx="8.7" cy="8.848" rx="8.7" ry="8.848" transform="translate(30.9 34.934)" fill="none" stroke="#00d8cb" stroke-linecap="round" stroke-linejoin="round" stroke-miterlimit="10" stroke-width="1"/>
        <path id="Path_1437" data-name="Path 1437" d="M70.9,181.882A4.8,4.8,0,1,1,66.1,177,4.826,4.826,0,0,1,70.9,181.882Z" transform="translate(-26.5 -138.1)" fill="none" stroke="#00d8cb" stroke-linecap="round" stroke-linejoin="round" stroke-miterlimit="10" stroke-width="1"/>
        <path id="Path_1438" data-name="Path 1438" d="M72.95,231.271V208.236L65.075,201.6,57.2,208.236v23.035" transform="translate(-25.475 -143.936)" fill="none" stroke="#00d8cb" stroke-linecap="round" stroke-linejoin="round" stroke-miterlimit="10" stroke-width="1"/>
      </g>
      <g id="Group_617" data-name="Group 617" transform="translate(240.75 41.57)">
        <rect id="Rectangle_353" data-name="Rectangle 353" width="4.575" height="27.764" transform="translate(17.7 52.859)" fill="none" stroke="#00d8cb" stroke-linecap="round" stroke-linejoin="round" stroke-miterlimit="10" stroke-width="1"/>
        <rect id="Rectangle_354" data-name="Rectangle 354" width="4.575" height="27.764" transform="translate(13.125 52.859)" fill="none" stroke="#00d8cb" stroke-linecap="round" stroke-linejoin="round" stroke-miterlimit="10" stroke-width="1"/>
        <rect id="Rectangle_355" data-name="Rectangle 355" width="4.575" height="27.764" transform="translate(0 52.859)" fill="none" stroke="#00d8cb" stroke-linecap="round" stroke-linejoin="round" stroke-miterlimit="10" stroke-width="1"/>
        <path id="Path_1439" data-name="Path 1439" d="M335.45,235.8V225.048a4.31,4.31,0,0,0-4.275-4.348h0a4.31,4.31,0,0,0-4.275,4.348V235.8" transform="translate(-322.325 -155.104)" fill="none" stroke="#00d8cb" stroke-linecap="round" stroke-linejoin="round" stroke-miterlimit="10" stroke-width="1"/>
        <rect id="Rectangle_356" data-name="Rectangle 356" width="4.95" height="8.467" transform="translate(6.375 54.689)" fill="none" stroke="#00d8cb" stroke-linecap="round" stroke-linejoin="round" stroke-miterlimit="10" stroke-width="1"/>
        <line id="Line_13" data-name="Line 13" x2="4.95" transform="translate(6.375 58.884)" fill="none" stroke="#00d8cb" stroke-linecap="round" stroke-linejoin="round" stroke-miterlimit="10" stroke-width="1"/>
        <line id="Line_14" data-name="Line 14" y2="8.467" transform="translate(8.85 54.689)" fill="none" stroke="#00d8cb" stroke-linecap="round" stroke-linejoin="round" stroke-miterlimit="10" stroke-width="1"/>
        <rect id="Rectangle_357" data-name="Rectangle 357" width="22.275" height="2.67" transform="translate(0 50.265)" fill="none" stroke="#00d8cb" stroke-linecap="round" stroke-linejoin="round" stroke-miterlimit="10" stroke-width="1"/>
        <rect id="Rectangle_358" data-name="Rectangle 358" width="22.275" height="2.67" transform="translate(0 37.222)" fill="none" stroke="#00d8cb" stroke-linecap="round" stroke-linejoin="round" stroke-miterlimit="10" stroke-width="1"/>
        <rect id="Rectangle_359" data-name="Rectangle 359" width="22.275" height="10.297" transform="translate(0 39.892)" fill="none" stroke="#00d8cb" stroke-linecap="round" stroke-linejoin="round" stroke-miterlimit="10" stroke-width="1"/>
        <path id="Path_1440" data-name="Path 1440" d="M320.8,175.932l12.15-10.678,2.475,10.678V151.6H352.75" transform="translate(-320.8 -138.71)" fill="none" stroke="#00d8cb" stroke-linecap="round" stroke-linejoin="round" stroke-miterlimit="10" stroke-width="1"/>
        <rect id="Rectangle_360" data-name="Rectangle 360" width="4.425" height="13.348" transform="translate(17.1 15.941)" fill="none" stroke="#00d8cb" stroke-linecap="round" stroke-linejoin="round" stroke-miterlimit="10" stroke-width="1"/>
        <rect id="Rectangle_361" data-name="Rectangle 361" width="8.7" height="3.89" transform="translate(13.125 5.873)" fill="none" stroke="#00d8cb" stroke-linecap="round" stroke-linejoin="round" stroke-miterlimit="10" stroke-width="1"/>
        <path id="Path_1441" data-name="Path 1441" d="M353.1,141.827l2.775-3.127,2.85,3.127Z" transform="translate(-328.875 -135.649)" fill="none" stroke="#00d8cb" stroke-linecap="round" stroke-linejoin="round" stroke-miterlimit="10" stroke-width="1"/>
        <rect id="Rectangle_362" data-name="Rectangle 362" width="4.575" height="27.764" transform="translate(46.234 80.697) rotate(180)" fill="none" stroke="#00d8cb" stroke-linecap="round" stroke-linejoin="round" stroke-miterlimit="10" stroke-width="1"/>
        <rect id="Rectangle_363" data-name="Rectangle 363" width="4.575" height="27.764" transform="translate(50.813 80.697) rotate(180)" fill="none" stroke="#00d8cb" stroke-linecap="round" stroke-linejoin="round" stroke-miterlimit="10" stroke-width="1"/>
        <rect id="Rectangle_364" data-name="Rectangle 364" width="4.575" height="27.764" transform="translate(63.913 80.697) rotate(180)" fill="none" stroke="#00d8cb" stroke-linecap="round" stroke-linejoin="round" stroke-miterlimit="10" stroke-width="1"/>
        <path id="Path_1442" data-name="Path 1442" d="M388.6,235.8V225.048a4.31,4.31,0,0,1,4.275-4.348h0a4.309,4.309,0,0,1,4.275,4.348V235.8" transform="translate(-337.75 -155.104)" fill="none" stroke="#00d8cb" stroke-linecap="round" stroke-linejoin="round" stroke-miterlimit="10" stroke-width="1"/>
        <rect id="Rectangle_365" data-name="Rectangle 365" width="4.95" height="8.467" transform="translate(57.551 63.119) rotate(180)" fill="none" stroke="#00d8cb" stroke-linecap="round" stroke-linejoin="round" stroke-miterlimit="10" stroke-width="1"/>
        <line id="Line_15" data-name="Line 15" x1="4.875" transform="translate(52.65 58.884)" fill="none" stroke="#00d8cb" stroke-linecap="round" stroke-linejoin="round" stroke-miterlimit="10" stroke-width="1"/>
        <line id="Line_16" data-name="Line 16" y2="8.467" transform="translate(55.125 54.689)" fill="none" stroke="#00d8cb" stroke-linecap="round" stroke-linejoin="round" stroke-miterlimit="10" stroke-width="1"/>
        <rect id="Rectangle_366" data-name="Rectangle 366" width="22.275" height="2.67" transform="translate(63.924 52.858) rotate(180)" fill="none" stroke="#00d8cb" stroke-linecap="round" stroke-linejoin="round" stroke-miterlimit="10" stroke-width="1"/>
        <rect id="Rectangle_367" data-name="Rectangle 367" width="22.275" height="2.67" transform="translate(63.924 39.942) rotate(180)" fill="none" stroke="#00d8cb" stroke-linecap="round" stroke-linejoin="round" stroke-miterlimit="10" stroke-width="1"/>
        <rect id="Rectangle_368" data-name="Rectangle 368" width="22.275" height="10.297" transform="translate(63.924 50.252) rotate(180)" fill="none" stroke="#00d8cb" stroke-linecap="round" stroke-linejoin="round" stroke-miterlimit="10" stroke-width="1"/>
        <path id="Path_1443" data-name="Path 1443" d="M395.425,175.932l-12.15-10.678L380.8,175.932V151.6H363.4" transform="translate(-331.45 -138.71)" fill="none" stroke="#00d8cb" stroke-linecap="round" stroke-linejoin="round" stroke-miterlimit="10" stroke-width="1"/>
        <path id="Path_1444" data-name="Path 1444" d="M369.925,180.711a9.492,9.492,0,0,0-9.45-9.611h-.525a9.492,9.492,0,0,0-9.45,9.611" transform="translate(-328.225 -143.336)" fill="none" stroke="#00d8cb" stroke-linecap="round" stroke-linejoin="round" stroke-miterlimit="10" stroke-width="1"/>
        <rect id="Rectangle_369" data-name="Rectangle 369" width="4.425" height="13.348" transform="translate(46.868 29.331) rotate(180)" fill="none" stroke="#00d8cb" stroke-linecap="round" stroke-linejoin="round" stroke-miterlimit="10" stroke-width="1"/>
        <path id="Path_1445" data-name="Path 1445" d="M357.125,147.5H338.3v3.127h37.725V147.5Z" transform="translate(-325.175 -137.737)" fill="none" stroke="#00d8cb" stroke-linecap="round" stroke-linejoin="round" stroke-miterlimit="10" stroke-width="1"/>
        <rect id="Rectangle_370" data-name="Rectangle 370" width="8.7" height="3.89" transform="translate(50.864 9.72) rotate(180)" fill="none" stroke="#00d8cb" stroke-linecap="round" stroke-linejoin="round" stroke-miterlimit="10" stroke-width="1"/>
        <path id="Path_1446" data-name="Path 1446" d="M360.825,142.8H353.1v3.585h15.525V142.8Z" transform="translate(-328.875 -136.622)" fill="none" stroke="#00d8cb" stroke-linecap="round" stroke-linejoin="round" stroke-miterlimit="10" stroke-width="1"/>
        <path id="Path_1447" data-name="Path 1447" d="M362.7,134.7l-2.1,6.178h4.275Z" transform="translate(-330.75 -134.7)" fill="none" stroke="#00d8cb" stroke-linecap="round" stroke-linejoin="round" stroke-miterlimit="10" stroke-width="1"/>
        <path id="Path_1448" data-name="Path 1448" d="M371.925,141.827,369.15,138.7l-2.85,3.127Z" transform="translate(-332.175 -135.649)" fill="none" stroke="#00d8cb" stroke-linecap="round" stroke-linejoin="round" stroke-miterlimit="10" stroke-width="1"/>
      </g>
      <line id="Line_17" data-name="Line 17" x1="17.925" transform="translate(222.825 122.269)" fill="none" stroke="#00d8cb" stroke-linecap="round" stroke-linejoin="round" stroke-miterlimit="10" stroke-width="1"/>
      <line id="Line_18" data-name="Line 18" x2="11.325" transform="translate(304.725 122.269)" fill="none" stroke="#00d8cb" stroke-linecap="round" stroke-linejoin="round" stroke-miterlimit="10" stroke-width="1"/>
      <line id="Line_19" data-name="Line 19" x2="13.575" transform="translate(325.35 122.269)" fill="none" stroke="#00d8cb" stroke-linecap="round" stroke-linejoin="round" stroke-miterlimit="10" stroke-width="1"/>
      <line id="Line_20" data-name="Line 20" x1="20.325" transform="translate(194.175 122.269)" fill="none" stroke="#00d8cb" stroke-linecap="round" stroke-linejoin="round" stroke-miterlimit="10" stroke-width="1"/>
      <line id="Line_21" data-name="Line 21" x1="11.475" transform="translate(86.025 122.269)" fill="none" stroke="#00d8cb" stroke-linecap="round" stroke-linejoin="round" stroke-miterlimit="10" stroke-width="1"/>
      <line id="Line_22" data-name="Line 22" x1="15.75" transform="translate(0 122.269)" fill="none" stroke="#00d8cb" stroke-linecap="round" stroke-linejoin="round" stroke-miterlimit="10" stroke-width="1"/>
      <line id="Line_23" data-name="Line 23" x1="13.575" transform="translate(361.425 122.269)" fill="none" stroke="#00d8cb" stroke-linecap="round" stroke-linejoin="round" stroke-miterlimit="10" stroke-width="1"/>
      <g id="Group_619" data-name="Group 619" transform="translate(96.15 41.265)">
        <g id="Group_618" data-name="Group 618">
          <path id="Path_1449" data-name="Path 1449" d="M164.9,163.1v3.2h-2.7v-3.2h-3.45v3.2h-2.7v-3.2H152.6v3.2h-2.7v-3.2h-3.45v3.2h-2.7v-3.2H140.3v3.2h-2.775v-3.2H134.15v3.2h-2.775v-3.2H128v6.407h40.35V163.1Z" transform="translate(-128 -141.133)" fill="none" stroke="#00d8cb" stroke-linecap="round" stroke-linejoin="round" stroke-miterlimit="10" stroke-width="1"/>
          <path id="Path_1450" data-name="Path 1450" d="M165.275,159.471V139.563L162.05,134.3l-3.15,5.263v19.908" transform="translate(-135.725 -134.3)" fill="none" stroke="#00d8cb" stroke-linecap="round" stroke-linejoin="round" stroke-miterlimit="10" stroke-width="1"/>
          <path id="Path_1451" data-name="Path 1451" d="M153.225,146H151.95v-2.9H148.5V146h-2.7v-2.9h-3.45V146h-2.775v-2.9H136.2v6.407h17.025" transform="translate(-130.05 -136.388)" fill="none" stroke="#00d8cb" stroke-linecap="round" stroke-linejoin="round" stroke-miterlimit="10" stroke-width="1"/>
          <path id="Path_1452" data-name="Path 1452" d="M167.4,149.507h4.65V143.1H168.6V146h-1.2" transform="translate(-137.85 -136.388)" fill="none" stroke="#00d8cb" stroke-linecap="round" stroke-linejoin="round" stroke-miterlimit="10" stroke-width="1"/>
          <line id="Line_24" data-name="Line 24" y1="8.848" transform="translate(7.875 13.119)" fill="none" stroke="#00d8cb" stroke-linecap="round" stroke-linejoin="round" stroke-miterlimit="10" stroke-width="1"/>
          <line id="Line_25" data-name="Line 25" y1="8.848" transform="translate(32.625 13.119)" fill="none" stroke="#00d8cb" stroke-linecap="round" stroke-linejoin="round" stroke-miterlimit="10" stroke-width="1"/>
          <path id="Path_1453" data-name="Path 1453" d="M171.5,152.436l5.25-5.339v-7.856l-2.475-2.441-2.475,2.517v2.288" transform="translate(-138.875 -134.893)" fill="none" stroke="#00d8cb" stroke-linecap="round" stroke-linejoin="round" stroke-miterlimit="10" stroke-width="1"/>
          <path id="Path_1454" data-name="Path 1454" d="M136.75,152.436,131.5,147.1v-7.856l2.4-2.441,2.55,2.517v2.288" transform="translate(-128.875 -134.893)" fill="none" stroke="#00d8cb" stroke-linecap="round" stroke-linejoin="round" stroke-miterlimit="10" stroke-width="1"/>
          <rect id="Rectangle_371" data-name="Rectangle 371" width="37.65" height="5.873" transform="translate(1.35 28.374)" fill="none" stroke="#00d8cb" stroke-linecap="round" stroke-linejoin="round" stroke-miterlimit="10" stroke-width="1"/>
          <path id="Path_1455" data-name="Path 1455" d="M167.45,225.957V179.2H129.8v46.757" transform="translate(-128.45 -144.953)" fill="none" stroke="#00d8cb" stroke-linecap="round" stroke-linejoin="round" stroke-miterlimit="10" stroke-width="1"/>
          <rect id="Rectangle_372" data-name="Rectangle 372" width="6" height="6.102" transform="translate(17.175 40.044)" fill="none" stroke="#00d8cb" stroke-linecap="round" stroke-linejoin="round" stroke-miterlimit="10" stroke-width="1"/>
          <rect id="Rectangle_373" data-name="Rectangle 373" width="6" height="6.102" transform="translate(17.175 52.401)" fill="none" stroke="#00d8cb" stroke-linecap="round" stroke-linejoin="round" stroke-miterlimit="10" stroke-width="1"/>
          <rect id="Rectangle_374" data-name="Rectangle 374" width="6" height="6.102" transform="translate(17.175 65.673)" fill="none" stroke="#00d8cb" stroke-linecap="round" stroke-linejoin="round" stroke-miterlimit="10" stroke-width="1"/>
        </g>
        <path id="Path_1456" data-name="Path 1456" d="M239.025,232.5V206.8H235.65V210h-2.775v-3.2h-3.45V210h-2.7v-3.2h-3.45V210h-2.7v-3.2H216.9V210h-2.475v-3.2H210.75V210h-2.475v-3.2H204.6V210h-2.55v-3.2h-3.6V210h-2.775v-3.2H192.3V210h-2.775v-3.2H186.15V210h-2.775v-3.2H180v7.246" transform="translate(-141 -151.501)" fill="none" stroke="#00d8cb" stroke-linecap="round" stroke-linejoin="round" stroke-miterlimit="10" stroke-width="1"/>
        <path id="Path_1457" data-name="Path 1457" d="M258.775,216.555l4.8-4.882v-7.933l-2.4-2.441-2.475,2.593v2.288" transform="translate(-160.675 -150.196)" fill="none" stroke="#00d8cb" stroke-linecap="round" stroke-linejoin="round" stroke-miterlimit="10" stroke-width="1"/>
        <line id="Line_26" data-name="Line 26" x2="59.025" transform="translate(39 62.545)" fill="none" stroke="#00d8cb" stroke-linecap="round" stroke-linejoin="round" stroke-miterlimit="10" stroke-width="1"/>
        <rect id="Rectangle_375" data-name="Rectangle 375" width="5.925" height="2.822" transform="translate(42.75 75.97)" fill="none" stroke="#00d8cb" stroke-linecap="round" stroke-linejoin="round" stroke-miterlimit="10" stroke-width="1"/>
        <rect id="Rectangle_376" data-name="Rectangle 376" width="5.925" height="2.822" transform="translate(65.55 75.97)" fill="none" stroke="#00d8cb" stroke-linecap="round" stroke-linejoin="round" stroke-miterlimit="10" stroke-width="1"/>
        <rect id="Rectangle_377" data-name="Rectangle 377" width="5.925" height="2.822" transform="translate(88.35 75.97)" fill="none" stroke="#00d8cb" stroke-linecap="round" stroke-linejoin="round" stroke-miterlimit="10" stroke-width="1"/>
      </g>
      <rect id="Rectangle_378" data-name="Rectangle 378" width="30.075" height="3.204" transform="translate(335.1 74.749)" fill="none" stroke="#00d8cb" stroke-linecap="round" stroke-linejoin="round" stroke-miterlimit="10" stroke-width="1"/>
      <rect id="Rectangle_379" data-name="Rectangle 379" width="30.075" height="5.873" transform="translate(335.1 97.632)" fill="none" stroke="#00d8cb" stroke-linecap="round" stroke-linejoin="round" stroke-miterlimit="10" stroke-width="1"/>
      <rect id="Rectangle_380" data-name="Rectangle 380" width="6.975" height="2.212" transform="translate(336.825 77.953)" fill="none" stroke="#00d8cb" stroke-linecap="round" stroke-linejoin="round" stroke-miterlimit="10" stroke-width="1"/>
      <rect id="Rectangle_381" data-name="Rectangle 381" width="5.175" height="15.026" transform="translate(337.65 80.165)" fill="none" stroke="#00d8cb" stroke-linecap="round" stroke-linejoin="round" stroke-miterlimit="10" stroke-width="1"/>
      <rect id="Rectangle_382" data-name="Rectangle 382" width="6.975" height="2.517" transform="translate(336.825 95.115)" fill="none" stroke="#00d8cb" stroke-linecap="round" stroke-linejoin="round" stroke-miterlimit="10" stroke-width="1"/>
      <rect id="Rectangle_383" data-name="Rectangle 383" width="6.975" height="2.212" transform="translate(346.725 77.953)" fill="none" stroke="#00d8cb" stroke-linecap="round" stroke-linejoin="round" stroke-miterlimit="10" stroke-width="1"/>
      <rect id="Rectangle_384" data-name="Rectangle 384" width="5.175" height="15.026" transform="translate(347.625 80.165)" fill="none" stroke="#00d8cb" stroke-linecap="round" stroke-linejoin="round" stroke-miterlimit="10" stroke-width="1"/>
      <rect id="Rectangle_385" data-name="Rectangle 385" width="6.975" height="2.517" transform="translate(346.725 95.115)" fill="none" stroke="#00d8cb" stroke-linecap="round" stroke-linejoin="round" stroke-miterlimit="10" stroke-width="1"/>
      <rect id="Rectangle_386" data-name="Rectangle 386" width="6.975" height="2.212" transform="translate(356.625 77.953)" fill="none" stroke="#00d8cb" stroke-linecap="round" stroke-linejoin="round" stroke-miterlimit="10" stroke-width="1"/>
      <rect id="Rectangle_387" data-name="Rectangle 387" width="5.175" height="15.026" transform="translate(357.525 80.165)" fill="none" stroke="#00d8cb" stroke-linecap="round" stroke-linejoin="round" stroke-miterlimit="10" stroke-width="1"/>
      <rect id="Rectangle_388" data-name="Rectangle 388" width="6.975" height="2.517" transform="translate(356.625 95.115)" fill="none" stroke="#00d8cb" stroke-linecap="round" stroke-linejoin="round" stroke-miterlimit="10" stroke-width="1"/>
      <line id="Line_27" data-name="Line 27" y2="18.764" transform="translate(336.825 103.505)" fill="none" stroke="#00d8cb" stroke-linecap="round" stroke-linejoin="round" stroke-miterlimit="10" stroke-width="1"/>
      <line id="Line_28" data-name="Line 28" y2="18.764" transform="translate(363.6 103.505)" fill="none" stroke="#00d8cb" stroke-linecap="round" stroke-linejoin="round" stroke-miterlimit="10" stroke-width="1"/>
      <path id="Path_1458" data-name="Path 1458" d="M451.7,235.423V221.846a2.712,2.712,0,0,1,2.7-2.746h0a2.712,2.712,0,0,1,2.7,2.746v13.577h3.075V221.846a2.712,2.712,0,0,1,2.7-2.746h0a2.712,2.712,0,0,1,2.7,2.746v13.577h3.075V221.846a2.712,2.712,0,0,1,2.7-2.746h0a2.712,2.712,0,0,1,2.7,2.746v13.577" transform="translate(-112.775 -113.154)" fill="none" stroke="#00d8cb" stroke-linecap="round" stroke-linejoin="round" stroke-miterlimit="10" stroke-width="1"/>
      <rect id="Rectangle_389" data-name="Rectangle 389" width="3.975" height="9.763" transform="translate(341.775 63.537)" fill="none" stroke="#00d8cb" stroke-linecap="round" stroke-linejoin="round" stroke-miterlimit="10" stroke-width="1"/>
      <rect id="Rectangle_390" data-name="Rectangle 390" width="3.975" height="9.763" transform="translate(348.225 63.537)" fill="none" stroke="#00d8cb" stroke-linecap="round" stroke-linejoin="round" stroke-miterlimit="10" stroke-width="1"/>
      <rect id="Rectangle_391" data-name="Rectangle 391" width="3.975" height="9.763" transform="translate(354.675 63.537)" fill="none" stroke="#00d8cb" stroke-linecap="round" stroke-linejoin="round" stroke-miterlimit="10" stroke-width="1"/>
      <line id="Line_29" data-name="Line 29" y1="5.644" transform="translate(349.65 34.4)" fill="none" stroke="#00d8cb" stroke-linecap="round" stroke-linejoin="round" stroke-miterlimit="10" stroke-width="1"/>
      <path id="Path_1459" data-name="Path 1459" d="M475.65,171.438v-7.78l-2.4-2.441v-6.483h-6.075s-.075-5.034-4.95-5.034-4.95,5.034-4.95,5.034H451.2v6.483l-2.4,2.441v7.856" transform="translate(-112.05 -96.689)" fill="none" stroke="#00d8cb" stroke-linecap="round" stroke-linejoin="round" stroke-miterlimit="10" stroke-width="1"/>
      <path id="Path_1460" data-name="Path 1460" d="M473.7,151.719c0-7.246-4.725-13.119-10.5-13.119s-10.5,5.873-10.5,13.119" transform="translate(-113.025 -94.055)" fill="none" stroke="#00d8cb" stroke-linecap="round" stroke-linejoin="round" stroke-miterlimit="10" stroke-width="1"/>
      <path id="Path_1461" data-name="Path 1461" d="M469.75,138.421V137.2a4.426,4.426,0,1,0-8.85,0v1.22" transform="translate(-115.075 -92.656)" fill="none" stroke="#00d8cb" stroke-linecap="round" stroke-linejoin="round" stroke-miterlimit="10" stroke-width="1"/>
      <line id="Line_30" data-name="Line 30" y1="5.644" transform="translate(350.7 34.4)" fill="none" stroke="#00d8cb" stroke-linecap="round" stroke-linejoin="round" stroke-miterlimit="10" stroke-width="1"/>
    </g>
  </g>
</svg>
