<svg xmlns="http://www.w3.org/2000/svg" width="16.8" height="19.139" viewBox="0 0 16.8 19.139">
  <g id="baby" transform="translate(-28.191 0)">
    <path id="Path_1380" data-name="Path 1380" d="M285.719,212.749l-3.446-.517a1.34,1.34,0,0,0-1.384.7l-.361.686a8.524,8.524,0,0,1,2.014-.3,2.293,2.293,0,0,1,2.547,2.049l.234.035a1.34,1.34,0,0,0,.4-2.651Z" transform="translate(-241.87 -203.415)" fill="#babec2"/>
    <path id="Path_1381" data-name="Path 1381" d="M145.022,87.2a2.16,2.16,0,0,0-.553.421,23.793,23.793,0,0,1,1.049,3.108,1.6,1.6,0,0,0,2.023,1.078c.714-.228,1.4-.448,2.046-.63l-1.235-2.323,2.833-2.106a1.34,1.34,0,1,0-1.6-2.151l-3.2,2.378A2.154,2.154,0,0,0,145.022,87.2Z" transform="translate(-111.455 -80.833)" fill="#babec2"/>
    <path id="Path_1382" data-name="Path 1382" d="M40.671,146.686a16.763,16.763,0,0,0-4.283,1.025,2.593,2.593,0,0,1-3.279-1.749c-.644-2.229-1.319-4.566-2.512-4.268-1.952.487-2.91,3.383-2.14,6.468a7.585,7.585,0,0,0,2.171,3.829,3.556,3.556,0,0,0,.328.3l-.308,2.239a.35.35,0,0,0,.347.4h7.43a.35.35,0,0,0,.347-.4l-.255-1.855c2.556-1.1,4.137-3.167,3.67-5.041C42.012,146.943,41.456,146.686,40.671,146.686Z" transform="translate(0 -135.793)" fill="#babec2"/>
    <path id="Path_1383" data-name="Path 1383" d="M66.529,5.277A2.655,2.655,0,1,0,64.6,3.9,2.658,2.658,0,0,0,66.529,5.277Z" transform="translate(-34.602 0)" fill="#babec2"/>
  </g>
</svg>
