<svg xmlns="http://www.w3.org/2000/svg" width="18" height="16.444" viewBox="0 0 18 16.444">
  <path id="king-size-bed-with-two-pillows" d="M18,18.445a.42.42,0,0,0-.007-.073l0-.009a.433.433,0,0,0-.02-.063l-.008-.02-.005-.013L16.7,15.7a1.051,1.051,0,0,0,.66-.974V9.75a1.1,1.1,0,0,0-1.1-1.1,1.13,1.13,0,0,0-.2.018,1.089,1.089,0,0,0-.6.327c-1.007-1.156-3.843-1.77-6.542-1.77-2.636,0-5.4.585-6.468,1.689a1.084,1.084,0,0,0-.514-.246,1.13,1.13,0,0,0-.2-.018,1.1,1.1,0,0,0-1.1,1.1v4.976a1.051,1.051,0,0,0,.66.974L.044,18.266l-.005.013L.03,18.3a.432.432,0,0,0-.02.063l0,.009A.431.431,0,0,0,0,18.445s0,.007,0,.01v3.3a.431.431,0,0,0,.43.43h1.16v1.058a.431.431,0,0,0,.43.43H3.858a.431.431,0,0,0,.43-.43V22.183h9.578v1.058a.431.431,0,0,0,.43.43h1.837a.431.431,0,0,0,.43-.43V22.183h1a.431.431,0,0,0,.43-.43v-3.3S18,18.449,18,18.445Zm-7.938-7.08a.447.447,0,0,1,.447-.447h3.37a.447.447,0,0,1,.447.447v1.959a.447.447,0,0,1-.447.447h-3.37a.447.447,0,0,1-.447-.447Zm-6.386,0a.447.447,0,0,1,.447-.447h3.37a.447.447,0,0,1,.447.447v1.959a.447.447,0,0,1-.447.447H4.122a.447.447,0,0,1-.447-.447Zm-2.555,6.66,1.934-3.947a1.306,1.306,0,0,0,1.067.554h3.37a1.307,1.307,0,0,0,1.133-.658h.749a1.307,1.307,0,0,0,1.133.658h3.37a1.306,1.306,0,0,0,1.067-.554l1.934,3.947H1.121Z" transform="translate(0 -7.228)" fill="#fff"/>
</svg>
