<svg xmlns="http://www.w3.org/2000/svg" width="25.434" height="18" viewBox="0 0 25.434 18">
  <g id="sports-car" transform="translate(0 -5.707)">
    <g id="Group_63" data-name="Group 63" transform="translate(0 5.707)">
      <path id="Path_1148" data-name="Path 1148" d="M25.287,11.277a.654.654,0,0,0-.5-.24H22.307C21.7,9.426,20.9,7.847,20,7.251c-3.129-2.058-11.429-2.058-14.558,0-.905.6-1.7,2.177-2.312,3.785H.651a.652.652,0,0,0-.638.783L.38,13.6a.651.651,0,0,0,.638.519h.733A4.4,4.4,0,0,0,.7,16.989a4.3,4.3,0,0,0,1.36,3.233c.01.008.02.014.029.023V22.73a.978.978,0,0,0,.977.977H5.344a.978.978,0,0,0,.977-.977v-1h12.79v1a.978.978,0,0,0,.977.977h2.283a.978.978,0,0,0,.977-.977V20.294a4.468,4.468,0,0,0,.285-6.179h.782a.649.649,0,0,0,.638-.52l.367-1.776A.656.656,0,0,0,25.287,11.277ZM6.511,8.882c2.494-1.642,9.917-1.642,12.41,0A8.053,8.053,0,0,1,20.6,12.058H4.833A8.054,8.054,0,0,1,6.511,8.882ZM3.589,17.234a1.922,1.922,0,1,1,1.922,1.922A1.921,1.921,0,0,1,3.589,17.234Zm16.358,1.922a1.921,1.921,0,1,1,1.922-1.922A1.922,1.922,0,0,1,19.947,19.156Z" transform="translate(0 -5.707)" fill="#fff"/>
    </g>
  </g>
</svg>
