<svg xmlns="http://www.w3.org/2000/svg" width="13.254" height="18" viewBox="0 0 13.254 18">
  <g id="placeholder-filled-point" transform="translate(-12.883 -2)">
    <path id="Path_1135" data-name="Path 1135" d="M19.51,0a6.634,6.634,0,0,0-6.627,6.627,6.464,6.464,0,0,0,.58,2.705,41.783,41.783,0,0,0,5.768,8.54.369.369,0,0,0,.559,0,41.8,41.8,0,0,0,5.768-8.54,6.461,6.461,0,0,0,.58-2.705A6.635,6.635,0,0,0,19.51,0Zm0,10.069a3.442,3.442,0,1,1,3.442-3.442A3.446,3.446,0,0,1,19.51,10.069Z" transform="translate(0 2)" fill="#00d7ff"/>
  </g>
</svg>
