<svg xmlns="http://www.w3.org/2000/svg" xmlns:xlink="http://www.w3.org/1999/xlink" width="45.455" height="56.5" viewBox="0 0 45.455 56.5">
  <defs>
    <clipPath id="clip-path">
      <rect width="24" height="17" fill="none"/>
    </clipPath>
  </defs>
  <g id="Group_1007" data-name="Group 1007" transform="translate(0 -45)">
    <g id="Group_796" data-name="Group 796">
      <path id="Path_1786" data-name="Path 1786" d="M20,4.752,47.455,0a18,18,0,0,1,0,36L20.022,30.806Z" transform="translate(-20 55)" fill="#00d8cb"/>
      <path id="Path_1547" data-name="Path 1547" d="M3148.428,929.115s-29.218,2.664-28.59,10.551c.315.106,0-15.666,0-15.666l33.3,3.091Z" transform="translate(-3119.828 -838.167)" fill="#00d8cb"/>
      <path id="Path_1548" data-name="Path 1548" d="M3148.159,933.99s-28.944-2.523-28.322-9.99c.312-.1,0,14.833,0,14.833l32.99-2.926Z" transform="translate(-3119.828 -879)" fill="#00d8cb"/>
    </g>
    <g id="Component_11_8" data-name="Component 11 – 8" transform="translate(9 64)" clip-path="url(#clip-path)">
      <rect id="Rectangle_5" data-name="Rectangle 5" width="24" height="3" fill="#fff"/>
      <rect id="Rectangle_5-2" data-name="Rectangle 5" width="24" height="3" transform="translate(0 7)" fill="#fff"/>
      <rect id="Rectangle_5-3" data-name="Rectangle 5" width="18" height="3" transform="translate(0 14)" fill="#fff"/>
    </g>
  </g>
</svg>
