<svg id="plane" xmlns="http://www.w3.org/2000/svg" width="18.878" height="18.841" viewBox="0 0 18.878 18.841">
  <g id="Group_56" data-name="Group 56" transform="translate(0 2.631)">
    <g id="Group_55" data-name="Group 55">
      <path id="Path_1144" data-name="Path 1144" d="M2.364,71.859,0,74.223l6.607,2.588,3.7-3.7Z" transform="translate(0 -71.859)" fill="#fff"/>
    </g>
  </g>
  <g id="Group_58" data-name="Group 58" transform="translate(0.036 0)">
    <g id="Group_57" data-name="Group 57" transform="translate(0 0)">
      <path id="Path_1145" data-name="Path 1145" d="M19.454.87C19.006.421,18.231.377,17.212.742a5.427,5.427,0,0,0-1.786,1.023L6.193,11l-3.52.206L.985,12.893l2.758,1.331,1.31-1.31,1.539.027L4.8,14.733l.005,0-1.07,1.07.783.783,1.069-1.069.005.011,1.795-1.795V15.3L6.1,16.587l1.33,2.752,1.688-1.688.206-3.52L18.559,4.9a5.426,5.426,0,0,0,1.023-1.786C19.947,2.094,19.9,1.318,19.454.87Z" transform="translate(-0.985 -0.498)" fill="#fff"/>
    </g>
  </g>
  <g id="Group_60" data-name="Group 60" transform="translate(11.346 8.557)">
    <g id="Group_59" data-name="Group 59">
      <path id="Path_1146" data-name="Path 1146" d="M311.431,232.564l-3.7,3.7,2.577,6.58,2.364-2.364Z" transform="translate(-307.733 -232.564)" fill="#fff"/>
    </g>
  </g>
</svg>
